<?xml version="1.0" encoding="iso-8859-1"?>
<!-- Generator: Adobe Illustrator 17.1.0, SVG Export Plug-In . SVG Version: 6.00 Build 0)  -->
<!DOCTYPE svg PUBLIC "-//W3C//DTD SVG 1.1//EN" "http://www.w3.org/Graphics/SVG/1.1/DTD/svg11.dtd">
<svg version="1.1" id="Capa_1" xmlns="http://www.w3.org/2000/svg" xmlns:xlink="http://www.w3.org/1999/xlink" x="0px" y="0px"
	 viewBox="0 0 511 511" style="enable-background:new 0 0 511 511;" xml:space="preserve">
<g>
	<path style="fill:#ff4107;" d="M391.5,272c-19.224,0-37.399,4.57-53.506,12.67c3.237-9.128,5.006-18.946,5.006-29.17s-1.769-20.042-5.006-29.17
		c16.107,8.1,34.281,12.67,53.506,12.67c65.893,0,119.5-53.607,119.5-119.5S457.393,0,391.5,0S272,53.607,272,119.5
		c0,19.225,4.57,37.399,12.67,53.506c-9.128-3.237-18.946-5.006-29.17-5.006s-20.042,1.769-29.17,5.006
		c8.1-16.106,12.67-34.281,12.67-53.506C239,53.607,185.393,0,119.5,0S0,53.607,0,119.5S53.607,239,119.5,239
		c19.224,0,37.399-4.57,53.506-12.67c-3.237,9.128-5.006,18.946-5.006,29.17s1.769,20.042,5.006,29.17
		C156.899,276.57,138.724,272,119.5,272C53.607,272,0,325.607,0,391.5S53.607,511,119.5,511S239,457.393,239,391.5
		c0-19.225-4.57-37.399-12.67-53.506c9.128,3.237,18.946,5.006,29.17,5.006s20.042-1.769,29.17-5.006
		C276.57,354.101,272,372.275,272,391.5c0,65.893,53.607,119.5,119.5,119.5S511,457.393,511,391.5S457.393,272,391.5,272z M391.5,15
		C449.122,15,496,61.878,496,119.5S449.122,224,391.5,224c-26.117,0-50.028-9.631-68.366-25.528l57.917-57.917
		c3.207,1.595,6.762,2.445,10.449,2.445s7.241-0.85,10.449-2.445l40.817,40.817c1.464,1.464,3.384,2.196,5.303,2.196
		s3.839-0.732,5.303-2.196c2.929-2.929,2.929-7.678,0-10.606l-40.817-40.817c1.595-3.208,2.445-6.762,2.445-10.449
		c0-6.277-2.445-12.179-6.883-16.617C403.679,98.444,397.777,96,391.5,96c-3.687,0-7.241,0.85-10.449,2.445l-40.817-40.817
		c-2.929-2.929-7.678-2.929-10.606,0c-2.929,2.929-2.929,7.678,0,10.606l40.817,40.817C368.85,112.259,368,115.813,368,119.5
		s0.85,7.241,2.445,10.449l-57.917,57.917C296.631,169.527,287,145.617,287,119.5C287,61.878,333.878,15,391.5,15z M391.5,111
		c2.271,0,4.405,0.884,6.01,2.49c1.605,1.605,2.49,3.74,2.49,6.01s-0.884,4.405-2.49,6.011c-1.605,1.605-3.74,2.489-6.01,2.489
		s-4.405-0.884-6.01-2.489c0,0,0,0,0,0c-1.605-1.605-2.49-3.74-2.49-6.01s0.884-4.405,2.49-6.011
		C387.095,111.884,389.229,111,391.5,111z M15,119.5C15,61.878,61.878,15,119.5,15S224,61.878,224,119.5
		c0,26.117-9.631,50.027-25.528,68.366l-57.917-57.917c1.595-3.208,2.445-6.762,2.445-10.449s-0.85-7.241-2.445-10.449
		l40.817-40.817c2.929-2.929,2.929-7.677,0-10.606c-2.929-2.929-7.678-2.929-10.606,0l-40.816,40.817
		C126.741,96.85,123.187,96,119.5,96c-6.277,0-12.179,2.444-16.617,6.883C98.445,107.321,96,113.223,96,119.5
		c0,3.687,0.85,7.241,2.445,10.449l-40.817,40.817c-2.929,2.929-2.929,7.677,0,10.606c1.464,1.464,3.384,2.196,5.303,2.196
		s3.839-0.732,5.303-2.196l40.816-40.817c3.207,1.595,6.762,2.445,10.449,2.445s7.241-0.85,10.449-2.445l57.917,57.917
		C169.527,214.369,145.617,224,119.5,224C61.878,224,15,177.122,15,119.5z M119.5,128c-2.271,0-4.405-0.884-6.01-2.49
		c-1.605-1.605-2.49-3.74-2.49-6.01s0.884-4.405,2.49-6.011c1.605-1.605,3.74-2.489,6.01-2.489s4.405,0.884,6.01,2.49
		c1.605,1.605,2.49,3.74,2.49,6.01s-0.884,4.405-2.49,6.01c0,0,0,0,0,0C123.905,127.116,121.771,128,119.5,128z M119.5,496
		C61.878,496,15,449.122,15,391.5S61.878,287,119.5,287c26.117,0,50.027,9.631,68.366,25.528l-57.917,57.917
		C126.741,368.85,123.187,368,119.5,368s-7.241,0.85-10.449,2.445l-40.816-40.817c-2.929-2.929-7.678-2.929-10.606,0
		c-2.929,2.929-2.929,7.678,0,10.606l40.817,40.817C96.85,384.259,96,387.813,96,391.5c0,6.277,2.445,12.179,6.883,16.617
		c4.438,4.438,10.339,6.883,16.617,6.883c3.687,0,7.241-0.85,10.449-2.445l40.816,40.817c1.464,1.464,3.384,2.196,5.303,2.196
		s3.839-0.732,5.303-2.196c2.929-2.929,2.929-7.678,0-10.606l-40.817-40.817c1.595-3.208,2.445-6.762,2.445-10.449
		s-0.85-7.241-2.445-10.449l57.917-57.917C214.369,341.473,224,365.383,224,391.5C224,449.122,177.122,496,119.5,496z M119.5,400
		c-2.271,0-4.405-0.884-6.01-2.49c-1.605-1.605-2.49-3.74-2.49-6.01s0.884-4.405,2.49-6.011c1.605-1.605,3.74-2.489,6.01-2.489
		s4.405,0.884,6.01,2.489c0,0,0,0,0,0c1.605,1.605,2.49,3.74,2.49,6.01s-0.884,4.405-2.49,6.011
		C123.905,399.116,121.771,400,119.5,400z M183,255.5c0-39.977,32.523-72.5,72.5-72.5s72.5,32.523,72.5,72.5S295.477,328,255.5,328
		S183,295.477,183,255.5z M391.5,496C333.878,496,287,449.122,287,391.5c0-26.117,9.631-50.027,25.528-68.366l57.917,57.917
		C368.85,384.259,368,387.813,368,391.5s0.85,7.241,2.445,10.449l-40.817,40.817c-2.929,2.929-2.929,7.677,0,10.606
		c1.464,1.464,3.384,2.196,5.303,2.196s3.839-0.732,5.303-2.196l40.817-40.817c3.207,1.595,6.762,2.445,10.449,2.445
		c6.277,0,12.179-2.444,16.617-6.883c4.438-4.438,6.883-10.34,6.883-16.617c0-3.687-0.85-7.241-2.445-10.449l40.817-40.817
		c2.929-2.929,2.929-7.677,0-10.606c-2.929-2.929-7.678-2.929-10.606,0l-40.817,40.817C398.741,368.85,395.187,368,391.5,368
		s-7.241,0.85-10.449,2.445l-57.917-57.917C341.472,296.631,365.383,287,391.5,287c57.622,0,104.5,46.878,104.5,104.5
		S449.122,496,391.5,496z M391.5,383c2.271,0,4.405,0.884,6.01,2.49c1.605,1.605,2.49,3.74,2.49,6.01s-0.884,4.405-2.49,6.011
		c-1.605,1.605-3.74,2.489-6.01,2.489s-4.405-0.884-6.01-2.49c-1.605-1.605-2.49-3.74-2.49-6.01s0.884-4.405,2.49-6.01c0,0,0,0,0,0
		C387.095,383.884,389.229,383,391.5,383z"/>
	<path style="fill:#000000;" d="M301.743,224.801c-2.293-3.449-6.949-4.386-10.398-2.092c-3.449,2.293-4.386,6.949-2.092,10.398
		c4.414,6.638,6.748,14.381,6.748,22.393c0,22.332-18.168,40.5-40.5,40.5S215,277.832,215,255.5s18.168-40.5,40.5-40.5
		c4.621,0,9.149,0.77,13.459,2.288c3.908,1.376,8.19-0.675,9.566-4.583c1.376-3.907-0.676-8.189-4.583-9.565
		c-5.916-2.083-12.121-3.14-18.443-3.14c-30.603,0-55.5,24.897-55.5,55.5s24.897,55.5,55.5,55.5s55.5-24.897,55.5-55.5
		C311,244.523,307.799,233.908,301.743,224.801z"/>
</g>
<g>
</g>
<g>
</g>
<g>
</g>
<g>
</g>
<g>
</g>
<g>
</g>
<g>
</g>
<g>
</g>
<g>
</g>
<g>
</g>
<g>
</g>
<g>
</g>
<g>
</g>
<g>
</g>
<g>
</g>
</svg>
