<?xml version="1.0" encoding="iso-8859-1"?>
<!-- Generator: Adobe Illustrator 19.0.0, SVG Export Plug-In . SVG Version: 6.00 Build 0)  -->
<svg version="1.1" id="Capa_1" xmlns="http://www.w3.org/2000/svg" xmlns:xlink="http://www.w3.org/1999/xlink" x="0px" y="0px"
	 viewBox="0 0 60 60" style="enable-background:new 0 0 60 60;" xml:space="preserve">
<path d="M30,0C13.458,0,0,13.458,0,30s13.458,30,30,30s30-13.458,30-30S46.542,0,30,0z M55.563,30.826l-22,15
	C33.395,45.941,33.197,46,33,46c-0.16,0-0.32-0.038-0.467-0.116C32.205,45.711,32,45.371,32,45V31.892L11.563,45.826
	C11.395,45.941,11.197,46,11,46c-0.16,0-0.32-0.038-0.467-0.116C10.205,45.711,10,45.371,10,45V15c0-0.371,0.205-0.711,0.533-0.884
	c0.327-0.174,0.725-0.15,1.03,0.058L32,28.108V15c0-0.371,0.205-0.711,0.533-0.884c0.327-0.174,0.725-0.15,1.03,0.058l22,15
	C55.837,29.36,56,29.669,56,30S55.837,30.64,55.563,30.826z"/>
<g>
</g>
<g>
</g>
<g>
</g>
<g>
</g>
<g>
</g>
<g>
</g>
<g>
</g>
<g>
</g>
<g>
</g>
<g>
</g>
<g>
</g>
<g>
</g>
<g>
</g>
<g>
</g>
<g>
</g>
</svg>
