<?xml version="1.0" encoding="iso-8859-1"?>
<!-- Generator: Adobe Illustrator 18.1.1, SVG Export Plug-In . SVG Version: 6.00 Build 0)  -->
<svg version="1.1" id="Capa_1" xmlns="http://www.w3.org/2000/svg" xmlns:xlink="http://www.w3.org/1999/xlink" x="0px" y="0px"
	 viewBox="0 0 27.493 27.493" style="enable-background:new 0 0 27.493 27.493;" xml:space="preserve">
<g>
	<g id="c136_player">
		<path style="fill:#000000;" d="M13.747,0C6.155,0,0,6.154,0,13.746c0,7.594,6.155,13.747,13.747,13.747
			s13.746-6.153,13.746-13.747C27.493,6.154,21.339,0,13.747,0z M21.68,20.251h-1.948c-0.127,0-0.232-0.133-0.232-0.295v-5.205
			l-6.921,5.462c-0.053,0.04-0.119,0.062-0.184,0.062l-0.127-0.028c-0.102-0.049-0.164-0.152-0.164-0.266v-4.537L6.06,20.213
			c-0.054,0.04-0.117,0.062-0.183,0.062l-0.128-0.028c-0.102-0.049-0.166-0.152-0.166-0.266V7.513c0-0.114,0.064-0.216,0.166-0.265
			C5.852,7.196,5.97,7.212,6.06,7.278l6.044,4.768V7.513c0-0.114,0.062-0.216,0.164-0.265c0.103-0.052,0.222-0.036,0.311,0.03
			L19.5,12.74V7.535c0-0.16,0.105-0.294,0.232-0.294h1.948c0.128,0,0.231,0.134,0.231,0.294v12.421
			C21.911,20.118,21.808,20.251,21.68,20.251z"/>
	</g>
</g>
<g>
</g>
<g>
</g>
<g>
</g>
<g>
</g>
<g>
</g>
<g>
</g>
<g>
</g>
<g>
</g>
<g>
</g>
<g>
</g>
<g>
</g>
<g>
</g>
<g>
</g>
<g>
</g>
<g>
</g>
</svg>
