<?xml version="1.0" encoding="iso-8859-1"?>
<!-- Generator: Adobe Illustrator 19.0.0, SVG Export Plug-In . SVG Version: 6.00 Build 0)  -->
<svg version="1.1" id="Capa_1" xmlns="http://www.w3.org/2000/svg" xmlns:xlink="http://www.w3.org/1999/xlink" x="0px" y="0px"
	 viewBox="0 0 60 60" style="enable-background:new 0 0 60 60;" xml:space="preserve">
<path d="M30,60c16.542,0,30-13.458,30-30S46.542,0,30,0S0,13.458,0,30C0,46.542,13.458,60,30,60z M4.437,29.174l22-15
	C26.605,14.059,26.803,14,27,14c0.16,0,0.32,0.038,0.467,0.116C27.795,14.289,28,14.629,28,15v13.108l20.437-13.934
	C48.605,14.059,48.803,14,49,14c0.16,0,0.32,0.038,0.467,0.116C49.795,14.289,50,14.629,50,15v30c0,0.371-0.205,0.711-0.533,0.884
	c-0.327,0.174-0.725,0.15-1.03-0.058L28,31.892V45c0,0.371-0.205,0.711-0.533,0.884c-0.327,0.174-0.725,0.15-1.03-0.058l-22-15
	C4.163,30.64,4,30.331,4,30S4.163,29.36,4.437,29.174z"/>
<g>
</g>
<g>
</g>
<g>
</g>
<g>
</g>
<g>
</g>
<g>
</g>
<g>
</g>
<g>
</g>
<g>
</g>
<g>
</g>
<g>
</g>
<g>
</g>
<g>
</g>
<g>
</g>
<g>
</g>
</svg>
