<?xml version="1.0" encoding="utf-8"?>
<!-- Svg Vector Icons : http://www.onlinewebfonts.com/icon -->
<!DOCTYPE svg PUBLIC "-//W3C//DTD SVG 1.1//EN" "http://www.w3.org/Graphics/SVG/1.1/DTD/svg11.dtd">
<svg version="1.1" xmlns="http://www.w3.org/2000/svg" xmlns:xlink="http://www.w3.org/1999/xlink" x="0px" y="0px" viewBox="0 0 1000 1000" enable-background="new 0 0 1000 1000" xml:space="preserve">
<metadata> Svg Vector Icons : http://www.onlinewebfonts.com/icon </metadata>
<g><g transform="translate(0.000000,511.000000) scale(0.100000,-0.100000)"><path d="M2431.5,4895.7c-44.4-23.3-445.9-408.5-889.4-856.7c-751.7-754-810-819.4-835.7-922.1c-18.7-84-18.7-140.1,0-221.8c25.7-105,91-175.1,1034.1-1120.5L2746.7,763.8h462.2h464.6L3540.4,619c-74.7-81.7-149.4-179.8-168.1-219.4l-35-72.4h-308.1c-233.4,0-354.8-11.7-513.6-51.4c-338.5-81.7-684-261.5-919.8-478.5L1495.4-296L2093-893.6l597.6-599.9l-53.7-102.7c-65.4-126-72.4-366.5-14-476.2c142.4-266.1,464.5-373.5,728.3-245.1l112.1,53.7l536.9-534.6l534.6-534.6l84,93.4c214.8,242.8,385.2,562.6,473.9,887.1c39.7,142.4,53.7,263.8,58.4,520.6l7,333.8l100.4,65.4c56,37.4,149.4,114.4,207.8,175.1c56,58.4,112.1,107.4,121.4,107.4c9.3,0,18.7-212.4,18.7-473.9v-471.6L6663.8-3151c578.9-581.3,1085.5-1066.8,1120.5-1078.5c84.1-32.7,252.1-32.7,336.2-2.3c95.7,37.3,1683.1,1624.7,1736.8,1739.1c51.4,109.7,56,191.4,16.3,324.5c-23.3,81.7-182.1,252.1-1078.5,1153.2L7744.6,40.1h-490.2h-490.2l480.9,485.6C7835.7,1116.3,7859,1156,7859,1534.1c0,373.5-39.7,438.9-576.6,971.1c-508.9,504.2-560.3,532.2-929.1,534.6c-207.8,0-233.4-4.7-385.2-79.4c-140.1-67.7-233.4-149.4-635-546.2L4859.3,1945v490.2v490.2l-973.4,971.1C3225.2,4554.8,2882,4881.6,2823.7,4905C2707,4954,2531.9,4949.3,2431.5,4895.7z M4275.7,2211.1v-431.9l-205.4-205.4l-203.1-203.1h-443.5h-443.5l-817,817l-817,817l642,642l642,642l821.7-821.7l824-824V2211.1z M8360.9-1442.2l875.4-875.4l-642-642l-642-642l-880.1,880.1l-882.4,882.4v443.5V-952l191.4,191.4l193.8,193.8h455.2h455.2L8360.9-1442.2z"/><path d="M363.2-1486.6c-58.4-25.7-86.4-63-123.7-168.1c-81.7-212.4-119.1-399.2-135.4-653.6c-65.4-1078.5,653.6-2065.9,1713.5-2346c228.8-60.7,705-84.1,926.7-46.7c268.5,46.7,520.6,137.7,571.9,205.4c65.4,81.7,60.7,175.1-14,263.8c-53.7,65.4-72.4,72.4-156.4,63c-53.7-4.7-179.8-32.7-282.5-63c-242.8-67.7-672.3-74.7-896.4-16.3c-380.5,102.7-618.6,238.1-889.4,506.6c-221.8,221.8-354.8,436.5-459.9,735.3c-58.4,172.7-63,212.4-65.4,560.2c0,343.2,4.7,389.9,65.4,576.6c67.7,214.7,63,273.1-21,350.2C531.3-1463.2,444.9-1449.2,363.2-1486.6z"/><path d="M1156.9-1780.7c-214.8-88.7-294.1-721.3-142.4-1143.8c151.7-427.2,497.2-758.7,936.1-901.1c322.2-105,835.7-74.7,1017.8,58.4c149.4,107.4,102.7,331.5-77,378.2c-28,7-119.1-7-203.1-30.3c-581.3-163.4-1143.9,161.1-1295.6,744.7c-44.4,170.4-44.4,312.8,0,473.9c70,252.1,70,266.1-2.3,345.5C1315.7-1776,1231.6-1748,1156.9-1780.7z"/><path d="M1941.3-2077.2c-140.1-51.4-214.8-268.5-165.7-485.6c60.7-273.1,282.5-469.2,560.3-494.9c228.8-21,385.2,51.4,413.2,191.4c30.3,165.7-121.4,294.1-289.5,245.1c-88.7-23.3-161.1-2.3-224.1,67.7c-37.3,39.7-42,70-28,177.4c16.3,151.7-18.7,245.1-114.4,287.1C2027.7-2058.5,1997.3-2056.2,1941.3-2077.2z"/></g></g>
</svg>