<?xml version="1.0" encoding="iso-8859-1"?>
<!-- Generator: Adobe Illustrator 16.0.0, SVG Export Plug-In . SVG Version: 6.00 Build 0)  -->
<!DOCTYPE svg PUBLIC "-//W3C//DTD SVG 1.1//EN" "http://www.w3.org/Graphics/SVG/1.1/DTD/svg11.dtd">
<svg version="1.1" id="Capa_1" xmlns="http://www.w3.org/2000/svg" xmlns:xlink="http://www.w3.org/1999/xlink" x="0px" y="0px"
	 width="66.835px" height="66.835px" viewBox="0 0 66.835 66.835" style="enable-background:new 0 0 66.835 66.835;"
	 xml:space="preserve">
<g>
	<path d="M39.029,27.169c0-3.1-2.512-5.611-5.612-5.611c-3.1,0-5.61,2.511-5.61,5.611c0,1.801,0.861,3.381,2.182,4.409L21.72,66.835
		h23.409l-8.271-35.257C38.167,30.55,39.029,28.97,39.029,27.169z M36.821,51.908h-5.585l4.504-4.61L36.821,51.908z M33.417,37.4
		l1.438,6.127H31.98L33.417,37.4z M31.432,45.863h2.579l-3.392,3.474L31.432,45.863z M27.611,62.164l1.856-7.925h6.154l-7.736,7.925
		H27.611z M37.638,55.385l1.588,6.776h-8.207L37.638,55.385z M60.59,27.169c0,7.257-2.826,14.08-7.956,19.215
		c-0.452,0.456-1.055,0.688-1.652,0.688s-1.195-0.232-1.651-0.688c-0.912-0.913-0.912-2.387,0-3.299
		c4.248-4.252,6.588-9.904,6.588-15.912c0-12.408-10.091-22.501-22.5-22.501c-12.41,0-22.5,10.094-22.5,22.501
		c0,6.007,2.341,11.655,6.591,15.91c0.914,0.914,0.914,2.388,0,3.301c-0.916,0.914-2.389,0.914-3.303,0
		c-5.134-5.126-7.96-11.951-7.96-19.21C6.246,12.191,18.436,0,33.417,0S60.59,12.187,60.59,27.169z M41.395,35.146
		c2.131-2.129,3.306-4.962,3.306-7.978c0-6.221-5.062-11.282-11.283-11.282s-11.282,5.062-11.282,11.282
		c0,3.016,1.174,5.849,3.305,7.978c0.916,0.913,0.916,2.389,0,3.304c-0.916,0.912-2.387,0.912-3.303,0
		c-3.013-3.012-4.674-7.019-4.674-11.281c0-8.799,7.152-15.954,15.954-15.954c8.8,0,15.954,7.155,15.954,15.954
		c0,4.262-1.66,8.27-4.674,11.281c-0.456,0.453-1.054,0.684-1.651,0.684s-1.197-0.23-1.651-0.684
		C40.479,37.537,40.479,36.055,41.395,35.146z"/>
</g>
<g>
</g>
<g>
</g>
<g>
</g>
<g>
</g>
<g>
</g>
<g>
</g>
<g>
</g>
<g>
</g>
<g>
</g>
<g>
</g>
<g>
</g>
<g>
</g>
<g>
</g>
<g>
</g>
<g>
</g>
</svg>
