<svg id="svg" version="1.1" width="400" height="404.0677966101695" viewBox="0 0 400 404.0677966101695" xmlns="http://www.w3.org/2000/svg" xmlns:xlink="http://www.w3.org/1999/xlink" ><g id="svgg"><path id="path0" d="M100.800 67.800 C 100.477 68.189,99.581 68.402,98.251 68.405 C 95.637 68.412,94.400 68.747,94.400 69.447 C 94.400 69.844,93.836 70.000,92.400 70.000 C 90.889 70.000,90.400 70.147,90.400 70.600 C 90.400 71.003,89.997 71.200,89.171 71.200 C 88.496 71.200,87.673 71.470,87.343 71.800 C 87.013 72.130,86.328 72.400,85.820 72.400 C 85.313 72.400,84.651 72.705,84.349 73.077 C 83.876 73.660,83.883 73.707,84.400 73.413 C 84.737 73.221,84.862 73.224,84.685 73.418 C 84.512 73.608,83.882 73.829,83.286 73.909 C 82.689 73.989,82.057 74.312,81.881 74.627 C 81.705 74.942,81.102 75.200,80.543 75.200 C 79.862 75.200,79.456 75.464,79.316 76.000 C 79.180 76.521,78.770 76.800,78.141 76.800 C 77.610 76.800,77.071 77.070,76.945 77.400 C 76.818 77.730,76.374 78.000,75.957 78.000 C 75.541 78.000,75.200 78.270,75.200 78.600 C 75.200 78.930,74.958 79.200,74.662 79.200 C 74.366 79.200,73.798 79.560,73.400 80.000 C 73.002 80.440,72.428 80.800,72.125 80.800 C 71.823 80.800,71.471 81.070,71.345 81.400 C 71.218 81.730,70.864 82.000,70.557 82.000 C 70.251 82.000,70.000 82.258,70.000 82.573 C 70.000 82.888,69.640 83.260,69.200 83.400 C 68.760 83.540,68.400 83.912,68.400 84.227 C 68.400 84.542,68.130 84.800,67.800 84.800 C 67.470 84.800,67.200 85.049,67.200 85.353 C 67.200 85.658,66.840 86.001,66.400 86.116 C 65.960 86.231,65.600 86.612,65.600 86.963 C 65.600 87.313,65.330 87.600,65.000 87.600 C 64.670 87.600,64.400 87.870,64.400 88.200 C 64.400 88.530,64.130 88.800,63.800 88.800 C 63.470 88.800,63.200 89.058,63.200 89.373 C 63.200 89.688,62.840 90.060,62.400 90.200 C 61.960 90.340,61.600 90.712,61.600 91.027 C 61.600 91.342,61.330 91.600,61.000 91.600 C 60.667 91.600,60.400 91.956,60.400 92.400 C 60.400 92.840,60.211 93.200,59.979 93.200 C 59.748 93.200,59.370 93.740,59.140 94.400 C 58.910 95.060,58.469 95.600,58.161 95.600 C 57.852 95.600,57.600 95.960,57.600 96.400 C 57.600 96.844,57.333 97.200,57.000 97.200 C 56.605 97.200,56.400 97.595,56.400 98.353 C 56.400 99.170,56.167 99.568,55.600 99.716 C 55.160 99.831,54.800 100.225,54.800 100.591 C 54.800 100.957,54.530 101.527,54.200 101.857 C 53.870 102.187,53.578 102.804,53.550 103.229 C 53.466 104.532,53.412 104.722,53.036 105.067 C 52.820 105.264,52.805 105.171,52.998 104.838 C 53.217 104.460,53.172 104.370,52.862 104.562 C 52.608 104.719,52.400 105.333,52.400 105.927 C 52.400 106.574,52.079 107.208,51.600 107.507 C 51.087 107.828,50.800 108.440,50.800 109.216 C 50.800 109.922,50.550 110.521,50.200 110.655 C 49.780 110.817,49.600 111.472,49.600 112.843 C 49.600 114.243,49.442 114.800,49.047 114.800 C 48.374 114.800,48.013 116.023,48.005 118.329 C 48.002 119.325,47.746 120.311,47.400 120.657 C 46.503 121.554,46.503 145.646,47.400 146.543 C 47.746 146.889,48.002 147.875,48.005 148.871 C 48.013 151.177,48.374 152.400,49.047 152.400 C 49.444 152.400,49.600 152.964,49.600 154.400 C 49.600 155.911,49.747 156.400,50.200 156.400 C 50.596 156.400,50.800 156.796,50.800 157.567 C 50.800 158.996,51.158 160.000,51.666 160.000 C 51.876 160.000,51.919 159.792,51.762 159.538 C 51.605 159.284,51.647 159.182,51.855 159.310 C 52.063 159.439,52.276 160.231,52.329 161.072 C 52.382 161.912,52.689 162.800,53.012 163.044 C 53.336 163.288,53.600 163.851,53.600 164.295 C 53.600 164.739,53.870 165.326,54.200 165.600 C 54.530 165.874,54.800 166.340,54.800 166.635 C 54.800 166.930,55.160 167.365,55.600 167.600 C 56.068 167.850,56.400 168.438,56.400 169.014 C 56.400 169.624,56.629 170.000,57.000 170.000 C 57.330 170.000,57.600 170.332,57.600 170.738 C 57.600 171.144,57.960 171.802,58.400 172.200 C 58.840 172.598,59.200 173.166,59.200 173.462 C 59.200 173.758,59.470 174.000,59.800 174.000 C 60.133 174.000,60.400 174.356,60.400 174.800 C 60.400 175.244,60.667 175.600,61.000 175.600 C 61.330 175.600,61.600 175.870,61.600 176.200 C 61.600 176.533,61.956 176.800,62.400 176.800 C 62.840 176.800,63.200 177.059,63.200 177.375 C 63.200 178.121,68.684 183.600,69.430 183.600 C 69.744 183.600,70.000 183.960,70.000 184.400 C 70.000 184.844,70.267 185.200,70.600 185.200 C 70.930 185.200,71.200 185.470,71.200 185.800 C 71.200 186.133,71.556 186.400,72.000 186.400 C 72.444 186.400,72.800 186.667,72.800 187.000 C 72.800 187.332,73.155 187.600,73.597 187.600 C 74.035 187.600,74.618 187.960,74.893 188.400 C 75.168 188.840,75.709 189.200,76.096 189.200 C 76.483 189.200,76.800 189.470,76.800 189.800 C 76.800 190.200,77.200 190.400,78.000 190.400 C 78.763 190.400,79.200 190.604,79.200 190.961 C 79.200 191.575,81.369 192.498,81.799 192.067 C 81.946 191.920,82.007 192.066,81.933 192.391 C 81.853 192.745,82.148 193.034,82.671 193.115 C 83.150 193.188,83.757 193.507,84.020 193.824 C 84.283 194.141,85.014 194.400,85.646 194.400 C 86.360 194.400,86.982 194.702,87.293 195.200 C 87.621 195.725,88.226 196.000,89.053 196.000 C 89.805 196.000,90.407 196.242,90.545 196.600 C 90.706 197.021,91.362 197.200,92.738 197.200 C 93.943 197.200,94.884 197.419,95.172 197.766 C 95.475 198.131,96.874 198.422,99.121 198.586 C 101.034 198.726,103.078 199.101,103.662 199.420 C 104.501 199.878,106.627 200.000,113.790 200.000 C 123.221 200.000,124.000 200.133,124.000 201.744 C 124.000 202.075,124.360 202.460,124.800 202.600 C 125.240 202.740,125.600 203.112,125.600 203.427 C 125.600 203.742,125.870 204.000,126.200 204.000 C 126.543 204.000,126.800 204.360,126.800 204.843 C 126.800 205.428,126.984 205.615,127.400 205.455 C 127.730 205.329,128.000 205.399,128.000 205.613 C 128.000 205.826,127.685 206.005,127.300 206.012 C 126.633 206.024,126.633 206.044,127.300 206.432 C 127.685 206.656,128.000 207.101,128.000 207.420 C 128.000 207.739,128.360 208.000,128.800 208.000 C 129.429 208.000,129.600 208.267,129.600 209.249 C 129.600 210.272,129.701 210.414,130.158 210.035 C 130.586 209.680,130.711 209.691,130.695 210.086 C 130.636 211.531,130.858 212.000,131.600 212.000 C 132.123 212.000,132.400 212.267,132.400 212.771 C 132.400 213.196,132.670 213.813,133.000 214.143 C 133.330 214.473,133.600 215.026,133.600 215.371 C 133.600 215.717,133.870 216.000,134.200 216.000 C 134.533 216.000,134.800 216.356,134.800 216.800 C 134.800 217.333,135.067 217.600,135.600 217.600 C 136.222 217.600,136.400 217.867,136.400 218.800 C 136.400 219.460,136.576 220.000,136.791 220.000 C 137.338 220.000,136.441 222.040,135.532 222.864 C 135.130 223.229,134.800 223.994,134.800 224.564 C 134.800 225.218,134.579 225.600,134.200 225.600 C 133.870 225.600,133.600 225.941,133.600 226.357 C 133.600 226.774,133.330 227.218,133.000 227.345 C 132.649 227.479,132.400 228.079,132.400 228.787 C 132.400 229.733,132.224 230.000,131.600 230.000 C 131.139 230.000,130.800 230.267,130.800 230.629 C 130.800 230.974,130.530 231.527,130.200 231.857 C 129.870 232.187,129.600 232.804,129.600 233.229 C 129.600 233.653,129.326 234.000,128.990 234.000 C 128.628 234.000,128.279 234.503,128.133 235.234 C 127.997 235.913,127.642 236.563,127.343 236.677 C 127.044 236.792,126.800 237.136,126.800 237.443 C 126.800 237.749,126.530 238.000,126.200 238.000 C 125.870 238.000,125.600 238.270,125.600 238.600 C 125.600 238.930,125.240 239.560,124.800 240.000 C 124.360 240.440,124.000 241.070,124.000 241.400 C 124.000 241.730,123.730 242.000,123.400 242.000 C 123.070 242.000,122.800 242.270,122.800 242.600 C 122.800 244.577,121.752 244.800,112.449 244.800 C 105.158 244.800,103.615 244.900,103.200 245.400 C 102.831 245.844,101.849 246.000,99.413 246.000 C 96.632 246.000,96.012 246.124,95.400 246.800 C 94.865 247.392,94.168 247.600,92.725 247.600 C 91.361 247.600,90.706 247.780,90.545 248.200 C 90.412 248.547,89.814 248.800,89.129 248.800 C 88.476 248.800,87.673 249.070,87.343 249.400 C 87.013 249.730,86.306 250.000,85.771 250.000 C 85.237 250.000,84.466 250.334,84.058 250.742 C 83.650 251.150,82.840 251.604,82.258 251.750 C 81.676 251.896,81.200 252.192,81.200 252.408 C 81.200 252.623,80.846 252.800,80.414 252.800 C 79.982 252.800,79.435 253.160,79.200 253.600 C 78.950 254.068,78.362 254.400,77.786 254.400 C 77.176 254.400,76.800 254.629,76.800 255.000 C 76.800 255.330,76.530 255.600,76.200 255.600 C 75.870 255.600,75.240 255.960,74.800 256.400 C 74.360 256.840,73.730 257.200,73.400 257.200 C 73.070 257.200,72.800 257.470,72.800 257.800 C 72.800 258.133,72.444 258.400,72.000 258.400 C 71.556 258.400,71.200 258.667,71.200 259.000 C 71.200 259.330,70.930 259.600,70.600 259.600 C 70.270 259.600,70.000 259.870,70.000 260.200 C 70.000 260.530,69.774 260.800,69.498 260.800 C 69.222 260.800,68.470 261.430,67.828 262.200 C 67.186 262.970,66.416 263.600,66.117 263.600 C 65.818 263.600,65.201 264.230,64.747 265.000 C 64.293 265.770,63.759 266.400,63.560 266.400 C 63.362 266.400,63.200 266.649,63.200 266.953 C 63.200 267.258,62.840 267.601,62.400 267.716 C 61.960 267.831,61.600 268.212,61.600 268.563 C 61.600 268.913,61.330 269.200,61.000 269.200 C 60.670 269.200,60.400 269.470,60.400 269.800 C 60.400 270.130,60.216 270.400,59.990 270.400 C 59.568 270.400,58.613 272.342,58.745 272.930 C 58.786 273.111,58.634 273.145,58.407 273.004 C 58.180 272.864,57.874 273.076,57.727 273.475 C 57.580 273.874,57.222 274.344,56.930 274.520 C 56.639 274.696,56.400 275.269,56.400 275.793 C 56.400 276.395,56.105 276.840,55.600 277.000 C 55.160 277.140,54.800 277.583,54.800 277.984 C 54.800 278.386,54.530 278.818,54.200 278.945 C 53.849 279.079,53.600 279.679,53.600 280.387 C 53.600 281.199,53.401 281.600,53.000 281.600 C 52.581 281.600,52.400 282.022,52.400 283.000 C 52.400 283.925,52.212 284.400,51.847 284.400 C 51.273 284.400,50.815 285.570,50.805 287.057 C 50.802 287.529,50.530 288.018,50.200 288.145 C 49.777 288.307,49.600 288.968,49.600 290.387 C 49.600 291.834,49.444 292.400,49.047 292.400 C 48.381 292.400,48.013 293.619,48.005 295.851 C 48.002 296.825,47.754 297.706,47.400 298.000 C 46.549 298.706,46.500 322.588,47.346 323.811 C 47.647 324.245,47.979 325.662,48.084 326.960 C 48.211 328.523,48.499 329.483,48.938 329.804 C 49.371 330.121,49.600 330.866,49.600 331.957 C 49.600 333.071,49.799 333.702,50.200 333.855 C 50.558 333.993,50.800 334.595,50.800 335.347 C 50.800 336.174,51.075 336.779,51.600 337.107 C 52.113 337.428,52.400 338.040,52.400 338.816 C 52.400 339.522,52.650 340.121,53.000 340.255 C 53.330 340.382,53.600 340.897,53.600 341.400 C 53.600 341.903,53.870 342.418,54.200 342.545 C 54.530 342.671,54.800 343.210,54.800 343.741 C 54.800 344.370,55.079 344.780,55.600 344.916 C 56.144 345.058,56.400 345.462,56.400 346.175 C 56.400 346.753,56.670 347.329,57.000 347.455 C 57.330 347.582,57.600 347.942,57.600 348.255 C 57.600 348.569,57.857 348.924,58.172 349.045 C 58.487 349.165,58.927 349.790,59.151 350.432 C 59.375 351.074,59.748 351.600,59.979 351.600 C 60.211 351.600,60.400 351.876,60.400 352.213 C 60.400 352.549,60.670 352.929,61.000 353.055 C 61.330 353.182,61.600 353.536,61.600 353.843 C 61.600 354.149,61.960 354.400,62.400 354.400 C 62.933 354.400,63.200 354.667,63.200 355.200 C 63.200 355.644,63.467 356.000,63.800 356.000 C 64.130 356.000,64.400 356.270,64.400 356.600 C 64.400 356.930,64.670 357.200,65.000 357.200 C 65.330 357.200,65.600 357.470,65.600 357.800 C 65.600 358.133,65.956 358.400,66.400 358.400 C 66.933 358.400,67.200 358.667,67.200 359.200 C 67.200 359.644,67.467 360.000,67.800 360.000 C 68.130 360.000,68.400 360.270,68.400 360.600 C 68.400 360.933,68.756 361.200,69.200 361.200 C 69.640 361.200,70.003 361.425,70.007 361.700 C 70.017 362.444,71.580 363.759,73.490 364.630 C 74.419 365.053,75.184 365.631,75.190 365.913 C 75.195 366.194,75.515 366.544,75.900 366.690 C 76.285 366.836,76.838 367.190,77.129 367.478 C 77.419 367.765,77.985 368.000,78.386 368.000 C 78.787 368.000,79.212 368.253,79.330 368.562 C 79.449 368.872,80.098 369.246,80.773 369.394 C 81.448 369.542,82.000 369.919,82.000 370.232 C 82.000 370.567,82.399 370.800,82.971 370.800 C 83.506 370.800,84.213 371.070,84.543 371.400 C 84.873 371.730,85.675 372.000,86.325 372.000 C 87.170 372.000,87.566 372.228,87.716 372.800 C 87.882 373.437,88.262 373.600,89.575 373.600 C 90.673 373.600,91.302 373.801,91.455 374.200 C 91.604 374.587,92.222 374.800,93.194 374.800 C 94.023 374.800,94.909 375.050,95.162 375.355 C 95.415 375.660,96.829 376.038,98.303 376.196 C 99.778 376.354,101.342 376.735,101.781 377.042 C 102.947 377.859,123.453 377.859,124.619 377.042 C 125.058 376.735,126.622 376.354,128.097 376.196 C 129.571 376.038,130.985 375.660,131.238 375.355 C 131.491 375.050,132.377 374.800,133.206 374.800 C 134.178 374.800,134.796 374.587,134.945 374.200 C 135.098 373.801,135.727 373.600,136.825 373.600 C 138.138 373.600,138.518 373.437,138.684 372.800 C 138.839 372.206,139.230 372.000,140.198 372.000 C 140.915 372.000,141.726 371.730,142.000 371.400 C 142.274 371.070,142.926 370.800,143.449 370.800 C 143.994 370.800,144.400 370.563,144.400 370.245 C 144.400 369.926,144.998 369.577,145.800 369.426 C 146.638 369.269,147.200 368.930,147.200 368.582 C 147.200 368.262,147.547 368.000,147.971 368.000 C 148.396 368.000,148.981 367.765,149.271 367.478 C 149.562 367.190,150.115 366.836,150.500 366.690 C 150.885 366.544,151.200 366.149,151.200 365.813 C 151.200 365.476,151.538 365.200,151.951 365.200 C 152.364 365.200,152.926 364.930,153.200 364.600 C 153.474 364.270,153.876 364.000,154.093 364.000 C 154.669 364.000,156.385 362.284,156.393 361.700 C 156.397 361.425,156.760 361.200,157.200 361.200 C 157.644 361.200,158.000 360.933,158.000 360.600 C 158.000 360.270,158.270 360.000,158.600 360.000 C 158.933 360.000,159.200 359.644,159.200 359.200 C 159.200 358.667,159.467 358.400,160.000 358.400 C 160.444 358.400,160.800 358.133,160.800 357.800 C 160.800 357.470,161.070 357.200,161.400 357.200 C 161.730 357.200,162.000 356.930,162.000 356.600 C 162.000 356.270,162.270 356.000,162.600 356.000 C 162.933 356.000,163.200 355.644,163.200 355.200 C 163.200 354.667,163.467 354.400,164.000 354.400 C 164.440 354.400,164.800 354.149,164.800 353.843 C 164.800 353.536,165.070 353.182,165.400 353.055 C 165.730 352.929,166.000 352.549,166.000 352.213 C 166.000 351.876,166.270 351.600,166.600 351.600 C 166.930 351.600,167.200 351.330,167.200 351.000 C 167.200 350.670,167.560 350.040,168.000 349.600 C 168.440 349.160,168.800 348.530,168.800 348.200 C 168.800 347.870,169.070 347.600,169.400 347.600 C 169.771 347.600,170.000 347.224,170.000 346.614 C 170.000 346.038,170.332 345.450,170.800 345.200 C 171.240 344.965,171.600 344.530,171.600 344.235 C 171.600 343.940,171.870 343.474,172.200 343.200 C 172.530 342.926,172.800 342.274,172.800 341.751 C 172.800 341.196,173.037 340.800,173.368 340.800 C 173.685 340.800,174.062 340.224,174.219 339.500 C 174.375 338.785,174.749 337.845,175.051 337.411 C 175.353 336.977,175.600 336.032,175.600 335.311 C 175.600 334.412,175.789 334.000,176.200 334.000 C 176.653 334.000,176.800 333.511,176.800 332.000 C 176.800 330.557,176.955 330.000,177.357 330.000 C 178.117 330.000,178.398 329.113,178.413 326.667 C 178.420 325.487,178.678 324.267,179.013 323.824 C 179.498 323.183,179.600 321.037,179.600 311.524 C 179.600 302.013,179.696 300.000,180.150 300.000 C 180.453 300.000,180.808 299.460,180.940 298.800 C 181.081 298.096,181.432 297.600,181.790 297.600 C 182.125 297.600,182.400 297.330,182.400 297.000 C 182.400 296.670,182.546 296.400,182.724 296.400 C 182.901 296.400,183.396 296.117,183.824 295.770 C 184.251 295.424,184.330 295.273,184.000 295.434 C 183.647 295.607,183.537 295.578,183.733 295.364 C 184.080 294.985,184.270 294.933,185.600 294.850 C 186.040 294.822,186.400 294.530,186.400 294.200 C 186.400 293.867,186.756 293.600,187.200 293.600 C 187.640 293.600,188.360 293.240,188.800 292.800 C 189.240 292.360,189.715 292.000,189.856 292.000 C 189.997 292.000,190.370 291.685,190.686 291.300 C 191.037 290.872,191.147 290.833,190.971 291.200 C 190.737 291.687,190.784 291.706,191.221 291.300 C 191.518 291.025,192.084 290.800,192.480 290.800 C 192.876 290.800,193.200 290.550,193.200 290.245 C 193.200 289.926,193.798 289.577,194.600 289.426 C 195.438 289.269,196.000 288.930,196.000 288.582 C 196.000 288.072,196.749 287.798,197.711 287.956 C 197.882 287.984,198.127 287.736,198.254 287.404 C 198.381 287.072,198.804 286.800,199.194 286.800 C 199.583 286.800,200.149 286.495,200.451 286.123 C 200.924 285.540,200.917 285.493,200.400 285.787 C 200.042 285.991,199.935 285.981,200.133 285.764 C 200.480 285.385,200.670 285.333,202.000 285.250 C 202.440 285.223,202.800 284.930,202.800 284.600 C 202.800 284.200,203.200 284.000,204.000 284.000 C 204.774 284.000,205.200 283.797,205.200 283.428 C 205.200 283.113,205.605 282.798,206.100 282.728 C 206.658 282.649,206.961 282.360,206.898 281.967 C 206.842 281.618,207.057 281.333,207.376 281.333 C 207.695 281.333,207.921 281.514,207.878 281.734 C 207.835 281.954,208.220 282.353,208.734 282.621 C 209.247 282.888,209.868 283.308,210.114 283.554 C 210.359 283.799,210.974 284.000,211.480 284.000 C 212.031 284.000,212.400 284.241,212.400 284.600 C 212.400 284.930,212.717 285.200,213.104 285.200 C 213.491 285.200,214.024 285.547,214.289 285.970 C 214.553 286.394,215.181 286.803,215.685 286.880 C 216.188 286.956,216.555 287.240,216.500 287.509 C 216.445 287.779,216.535 287.979,216.700 287.953 C 217.961 287.753,219.200 288.081,219.200 288.613 C 219.200 289.239,220.749 290.054,221.310 289.723 C 221.480 289.623,221.570 289.763,221.510 290.035 C 221.449 290.307,221.850 290.651,222.400 290.800 C 222.950 290.949,223.368 291.242,223.328 291.451 C 223.289 291.659,223.729 291.869,224.306 291.917 C 225.245 291.995,225.772 292.402,226.093 293.297 C 226.152 293.460,226.682 293.633,227.272 293.681 C 227.861 293.730,228.311 293.941,228.272 294.149 C 228.232 294.358,228.650 294.651,229.200 294.800 C 229.750 294.949,230.155 295.280,230.100 295.535 C 230.045 295.791,230.135 295.964,230.300 295.921 C 230.913 295.759,232.334 296.450,232.550 297.015 C 232.679 297.350,233.293 297.600,233.987 297.600 C 234.772 297.600,235.200 297.802,235.200 298.172 C 235.200 298.487,235.605 298.806,236.100 298.882 C 236.595 298.957,236.955 299.240,236.900 299.509 C 236.845 299.779,236.935 299.971,237.100 299.936 C 237.626 299.825,238.989 300.521,239.320 301.070 C 239.496 301.361,240.086 301.600,240.632 301.600 C 241.178 301.600,241.729 301.870,241.855 302.200 C 241.982 302.530,242.314 302.800,242.592 302.800 C 242.986 302.800,243.138 305.441,243.271 314.648 C 243.424 325.205,243.516 326.550,244.121 326.992 C 244.633 327.366,244.800 328.097,244.800 329.957 C 244.800 331.782,244.956 332.485,245.400 332.655 C 245.810 332.813,246.000 333.454,246.000 334.680 C 246.000 336.138,246.150 336.514,246.800 336.684 C 247.421 336.847,247.600 337.230,247.600 338.398 C 247.600 339.247,247.861 340.119,248.200 340.400 C 248.530 340.674,248.800 341.313,248.800 341.820 C 248.800 342.328,249.061 343.004,249.380 343.323 C 249.699 343.642,250.076 344.362,250.216 344.923 C 250.357 345.483,250.726 346.039,251.036 346.159 C 251.346 346.278,251.600 346.573,251.600 346.816 C 251.600 347.059,251.870 347.527,252.200 347.857 C 252.530 348.187,252.800 348.821,252.800 349.266 C 252.800 349.738,253.133 350.162,253.600 350.284 C 254.040 350.399,254.400 350.810,254.400 351.198 C 254.400 351.585,254.670 352.126,255.000 352.400 C 255.330 352.674,255.600 353.152,255.600 353.462 C 255.600 353.771,255.852 354.122,256.161 354.240 C 256.469 354.359,256.812 354.803,256.923 355.228 C 257.034 355.652,257.412 356.000,257.763 356.000 C 258.113 356.000,258.400 356.270,258.400 356.600 C 258.400 356.930,258.670 357.200,259.000 357.200 C 259.330 357.200,259.600 357.357,259.600 357.550 C 259.600 358.054,264.285 362.800,264.783 362.800 C 265.012 362.800,265.200 363.070,265.200 363.400 C 265.200 363.730,265.470 364.000,265.800 364.000 C 266.130 364.000,266.400 364.270,266.400 364.600 C 266.400 364.933,266.756 365.200,267.200 365.200 C 267.650 365.200,268.000 365.467,268.000 365.810 C 268.000 366.145,268.433 366.584,268.961 366.785 C 269.490 366.986,270.040 367.342,270.185 367.575 C 270.329 367.809,270.797 368.000,271.224 368.000 C 271.651 368.000,272.000 368.270,272.000 368.600 C 272.000 368.930,272.152 369.200,272.339 369.200 C 272.525 369.200,273.093 369.560,273.600 370.000 C 274.107 370.440,274.855 370.800,275.261 370.800 C 275.668 370.800,276.000 371.070,276.000 371.400 C 276.000 371.815,276.417 372.000,277.353 372.000 C 278.370 372.000,278.759 372.199,278.916 372.800 C 279.068 373.383,279.462 373.600,280.363 373.600 C 281.196 373.600,281.600 373.796,281.600 374.200 C 281.600 374.619,282.022 374.800,283.000 374.800 C 283.919 374.800,284.400 374.988,284.400 375.348 C 284.400 375.705,285.101 375.990,286.400 376.162 C 287.770 376.344,288.400 376.612,288.400 377.014 C 288.400 377.449,288.905 377.600,290.357 377.600 C 291.728 377.600,292.383 377.780,292.545 378.200 C 292.723 378.664,293.501 378.800,295.987 378.800 C 298.516 378.800,299.200 378.923,299.200 379.375 C 299.200 380.732,320.390 380.851,321.377 379.500 C 321.773 378.957,322.474 378.800,324.495 378.800 C 326.324 378.800,327.251 378.621,327.600 378.200 C 327.900 377.839,328.775 377.600,329.800 377.600 C 330.829 377.600,331.700 377.361,332.003 376.996 C 332.278 376.664,333.201 376.281,334.052 376.145 C 334.977 375.997,335.600 375.677,335.600 375.349 C 335.600 374.992,336.074 374.800,336.957 374.800 C 337.795 374.800,338.403 374.570,338.545 374.200 C 338.671 373.870,339.231 373.600,339.787 373.600 C 340.344 373.600,341.160 373.240,341.600 372.800 C 342.040 372.360,342.670 372.000,343.000 372.000 C 343.330 372.000,343.600 371.730,343.600 371.400 C 343.600 371.037,343.971 370.800,344.538 370.800 C 345.565 370.800,347.600 369.263,347.600 368.487 C 347.600 368.219,347.960 368.000,348.400 368.000 C 348.840 368.000,349.200 367.811,349.200 367.579 C 349.200 367.348,349.740 366.970,350.400 366.740 C 351.060 366.510,351.600 366.069,351.600 365.761 C 351.600 365.452,351.960 365.200,352.400 365.200 C 352.844 365.200,353.200 364.933,353.200 364.600 C 353.200 364.270,353.470 364.000,353.800 364.000 C 354.130 364.000,354.400 363.751,354.400 363.447 C 354.400 363.142,354.760 362.799,355.200 362.684 C 355.640 362.569,356.000 362.188,356.000 361.837 C 356.000 361.487,356.270 361.200,356.600 361.200 C 356.930 361.200,357.200 360.951,357.200 360.647 C 357.200 360.342,357.560 359.999,358.000 359.884 C 358.440 359.769,358.800 359.388,358.800 359.037 C 358.800 358.687,359.070 358.400,359.400 358.400 C 359.730 358.400,360.000 358.130,360.000 357.800 C 360.000 357.470,360.270 357.200,360.600 357.200 C 360.930 357.200,361.200 356.942,361.200 356.627 C 361.200 356.312,361.560 355.940,362.000 355.800 C 362.440 355.660,362.800 355.307,362.800 355.016 C 362.800 354.724,363.070 354.382,363.400 354.255 C 363.730 354.129,364.000 353.749,364.000 353.413 C 364.000 353.076,364.180 352.800,364.400 352.800 C 364.620 352.800,364.800 352.609,364.800 352.376 C 364.800 352.143,364.592 352.081,364.338 352.238 C 364.050 352.416,363.985 352.348,364.166 352.055 C 364.325 351.798,364.635 351.698,364.855 351.834 C 365.074 351.969,365.353 351.702,365.474 351.240 C 365.594 350.778,365.942 350.400,366.247 350.400 C 366.551 350.400,366.800 350.117,366.800 349.771 C 366.800 349.426,367.070 348.873,367.400 348.543 C 367.730 348.213,368.000 347.596,368.000 347.171 C 368.000 346.747,368.251 346.400,368.557 346.400 C 369.161 346.400,369.600 345.562,369.600 344.410 C 369.600 344.012,369.870 343.582,370.200 343.455 C 370.543 343.324,370.800 342.727,370.800 342.062 C 370.800 341.422,371.070 340.674,371.400 340.400 C 371.730 340.126,372.000 339.382,372.000 338.747 C 372.000 338.087,372.343 337.299,372.800 336.907 C 373.362 336.426,373.600 335.727,373.600 334.560 C 373.600 333.571,373.843 332.696,374.200 332.400 C 374.601 332.067,374.800 331.167,374.800 329.683 C 374.800 328.130,375.010 327.231,375.500 326.690 C 376.571 325.506,376.571 301.807,375.500 301.024 C 374.964 300.632,374.800 299.933,374.800 298.043 C 374.800 296.218,374.644 295.515,374.200 295.345 C 373.792 295.188,373.600 294.550,373.600 293.353 C 373.600 292.087,373.375 291.400,372.800 290.907 C 372.360 290.530,372.000 289.741,372.000 289.154 C 372.000 288.566,371.730 287.982,371.400 287.855 C 371.026 287.712,370.800 287.102,370.800 286.236 C 370.800 285.472,370.617 284.734,370.394 284.596 C 370.171 284.458,369.730 283.728,369.414 282.973 C 369.099 282.218,368.652 281.600,368.420 281.600 C 368.189 281.600,368.000 281.259,368.000 280.843 C 368.000 280.426,367.730 279.982,367.400 279.855 C 367.070 279.729,366.794 279.214,366.787 278.713 C 366.780 278.211,366.150 277.179,365.387 276.419 C 364.624 275.660,364.000 274.709,364.000 274.307 C 364.000 273.904,363.730 273.471,363.400 273.345 C 363.070 273.218,362.800 272.864,362.800 272.557 C 362.800 272.251,362.440 272.000,362.000 272.000 C 361.467 272.000,361.200 271.733,361.200 271.200 C 361.200 270.756,360.933 270.400,360.600 270.400 C 360.270 270.400,360.000 270.220,360.000 270.000 C 360.000 269.505,354.059 263.600,353.561 263.600 C 353.362 263.600,353.200 263.330,353.200 263.000 C 353.200 262.670,353.030 262.400,352.822 262.400 C 352.615 262.400,351.760 261.771,350.922 261.002 C 350.085 260.233,348.995 259.603,348.500 259.602 C 347.968 259.601,347.600 259.355,347.600 259.000 C 347.600 258.670,347.330 258.400,347.000 258.400 C 346.670 258.400,346.400 258.149,346.400 257.843 C 346.400 257.231,345.559 256.800,344.367 256.800 C 343.945 256.800,343.600 256.530,343.600 256.200 C 343.600 255.867,343.244 255.600,342.800 255.600 C 342.360 255.600,342.000 255.423,342.000 255.208 C 342.000 254.992,341.524 254.696,340.942 254.550 C 340.360 254.404,339.550 253.950,339.142 253.542 C 338.734 253.134,338.027 252.800,337.571 252.800 C 337.116 252.800,336.473 252.530,336.143 252.200 C 335.813 251.870,334.926 251.600,334.171 251.600 C 333.270 251.600,332.800 251.410,332.800 251.047 C 332.800 250.400,331.592 250.013,329.549 250.005 C 328.751 250.002,327.874 249.730,327.600 249.400 C 327.227 248.950,326.225 248.800,323.600 248.800 C 320.975 248.800,319.973 248.650,319.600 248.200 C 319.180 247.694,317.420 247.600,308.351 247.600 C 299.428 247.600,297.600 247.505,297.600 247.043 C 297.600 246.736,297.330 246.382,297.000 246.255 C 296.670 246.129,296.400 245.749,296.400 245.413 C 296.400 245.067,296.052 244.800,295.600 244.800 C 294.952 244.800,294.800 244.533,294.800 243.400 C 294.800 242.475,294.612 242.000,294.247 242.000 C 293.942 242.000,293.599 241.639,293.484 241.198 C 293.356 240.709,293.052 240.482,292.704 240.616 C 292.287 240.775,292.133 240.507,292.133 239.622 C 292.133 238.956,291.833 238.079,291.467 237.674 C 291.100 237.269,290.800 236.631,290.800 236.256 C 290.800 235.881,290.530 235.471,290.200 235.345 C 289.870 235.218,289.600 234.864,289.600 234.557 C 289.600 234.251,289.409 234.000,289.176 234.000 C 288.943 234.000,288.856 233.832,288.983 233.628 C 289.109 233.423,289.002 233.125,288.745 232.966 C 288.463 232.792,288.383 232.849,288.545 233.111 C 288.692 233.349,288.626 233.661,288.397 233.802 C 288.168 233.944,288.006 233.911,288.037 233.730 C 288.252 232.496,287.925 231.200,287.400 231.200 C 287.070 231.200,286.779 230.885,286.754 230.500 C 286.668 229.197,286.601 228.985,286.086 228.392 C 285.804 228.066,285.296 227.440,284.957 227.000 C 284.618 226.560,284.473 226.470,284.634 226.800 C 284.807 227.153,284.778 227.263,284.564 227.067 C 284.009 226.559,284.126 225.874,284.900 225.100 C 285.285 224.715,285.600 224.040,285.600 223.600 C 285.600 223.156,285.867 222.800,286.200 222.800 C 286.530 222.800,286.800 222.517,286.800 222.171 C 286.800 221.826,287.070 221.273,287.400 220.943 C 287.730 220.613,288.000 219.996,288.000 219.571 C 288.000 219.147,288.256 218.800,288.568 218.800 C 288.881 218.800,289.258 218.248,289.406 217.573 C 289.554 216.898,289.928 216.249,290.238 216.130 C 290.547 216.012,290.800 215.651,290.800 215.329 C 290.800 215.006,291.070 214.473,291.400 214.143 C 291.730 213.813,292.000 213.217,292.000 212.818 C 292.000 212.419,292.360 211.999,292.800 211.884 C 293.341 211.743,293.600 211.338,293.600 210.637 C 293.600 210.004,293.823 209.600,294.172 209.600 C 294.487 209.600,294.806 209.195,294.882 208.700 C 294.957 208.205,295.253 207.849,295.539 207.910 C 295.825 207.970,295.953 207.848,295.823 207.638 C 295.693 207.427,295.770 207.142,295.993 207.004 C 296.217 206.866,296.400 206.403,296.400 205.976 C 296.400 205.549,296.670 205.200,297.000 205.200 C 297.400 205.200,297.600 204.800,297.600 204.000 C 297.600 203.200,297.800 202.800,298.200 202.800 C 298.533 202.800,298.800 202.444,298.800 202.000 C 298.800 201.467,299.067 201.200,299.600 201.200 C 300.044 201.200,300.400 200.933,300.400 200.600 C 300.400 200.082,301.839 200.000,310.951 200.000 C 319.602 200.000,321.587 199.897,321.976 199.429 C 322.239 199.112,323.582 198.737,324.999 198.585 C 326.602 198.414,327.627 198.106,327.761 197.756 C 327.899 197.397,328.602 197.200,329.745 197.200 C 330.949 197.200,331.588 197.008,331.745 196.600 C 331.879 196.249,332.479 196.000,333.187 196.000 C 333.867 196.000,334.752 195.648,335.200 195.200 C 335.640 194.760,336.456 194.400,337.013 194.400 C 337.569 194.400,338.129 194.130,338.255 193.800 C 338.387 193.458,338.983 193.200,339.643 193.200 C 340.364 193.200,340.800 192.990,340.800 192.645 C 340.800 192.326,341.398 191.977,342.200 191.826 C 343.038 191.669,343.600 191.330,343.600 190.982 C 343.600 190.662,343.938 190.400,344.351 190.400 C 344.764 190.400,345.326 190.130,345.600 189.800 C 345.874 189.470,346.436 189.200,346.849 189.200 C 347.333 189.200,347.600 188.916,347.600 188.400 C 347.600 187.882,347.867 187.600,348.357 187.600 C 348.774 187.600,349.218 187.330,349.345 187.000 C 349.471 186.670,349.946 186.400,350.400 186.400 C 350.854 186.400,351.326 186.137,351.450 185.815 C 351.573 185.494,352.017 185.121,352.437 184.988 C 352.857 184.855,353.200 184.488,353.200 184.173 C 353.200 183.858,353.470 183.600,353.800 183.600 C 354.130 183.600,354.400 183.330,354.400 183.000 C 354.400 182.667,354.756 182.400,355.200 182.400 C 355.733 182.400,356.000 182.133,356.000 181.600 C 356.000 181.156,356.267 180.800,356.600 180.800 C 356.930 180.800,357.200 180.530,357.200 180.200 C 357.200 179.870,357.476 179.600,357.813 179.600 C 358.149 179.600,358.529 179.330,358.655 179.000 C 358.782 178.670,359.136 178.400,359.443 178.400 C 359.749 178.400,360.000 178.040,360.000 177.600 C 360.000 177.156,360.267 176.800,360.600 176.800 C 360.930 176.800,361.200 176.530,361.200 176.200 C 361.200 175.870,361.474 175.600,361.810 175.600 C 362.145 175.600,362.584 175.167,362.785 174.639 C 362.986 174.110,363.342 173.560,363.575 173.415 C 363.809 173.271,364.000 172.803,364.000 172.376 C 364.000 171.949,364.258 171.600,364.573 171.600 C 364.888 171.600,365.255 171.257,365.388 170.837 C 365.521 170.417,365.894 169.973,366.215 169.850 C 366.537 169.726,366.800 169.189,366.800 168.655 C 366.800 168.122,367.070 167.582,367.400 167.455 C 367.730 167.329,368.000 166.903,368.000 166.509 C 368.000 166.115,368.360 165.568,368.800 165.293 C 369.240 165.018,369.606 164.480,369.613 164.097 C 369.620 163.713,369.890 163.051,370.213 162.624 C 370.536 162.196,370.800 161.454,370.800 160.973 C 370.800 160.492,371.070 159.874,371.400 159.600 C 371.730 159.326,372.000 158.672,372.000 158.147 C 372.000 157.622,372.360 156.884,372.800 156.507 C 373.363 156.025,373.600 155.327,373.600 154.154 C 373.600 153.040,373.799 152.409,374.200 152.255 C 374.649 152.083,374.800 151.366,374.800 149.413 C 374.800 147.447,374.938 146.800,375.357 146.800 C 376.312 146.800,376.466 144.935,376.464 133.400 C 376.462 122.603,376.218 120.000,375.210 120.000 C 374.972 120.000,374.800 118.909,374.800 117.400 C 374.800 115.356,374.672 114.800,374.200 114.800 C 373.759 114.800,373.600 114.340,373.600 113.062 C 373.600 111.832,373.366 111.112,372.800 110.600 C 372.360 110.202,372.000 109.476,372.000 108.987 C 372.000 108.498,371.730 107.874,371.400 107.600 C 371.070 107.326,370.800 106.597,370.800 105.980 C 370.800 105.362,370.530 104.587,370.200 104.257 C 369.870 103.927,369.600 103.402,369.600 103.091 C 369.600 102.779,369.240 102.198,368.800 101.800 C 368.360 101.402,368.000 100.744,368.000 100.338 C 368.000 99.932,367.730 99.600,367.400 99.600 C 367.025 99.600,366.800 99.221,366.800 98.587 C 366.800 98.031,366.537 97.474,366.215 97.350 C 365.894 97.227,365.521 96.783,365.388 96.363 C 365.255 95.943,364.888 95.600,364.573 95.600 C 364.258 95.600,364.000 95.253,364.000 94.829 C 364.000 94.404,363.765 93.819,363.478 93.529 C 363.190 93.238,362.836 92.685,362.690 92.300 C 362.544 91.915,362.149 91.600,361.813 91.600 C 361.476 91.600,361.200 91.324,361.200 90.987 C 361.200 90.651,360.930 90.271,360.600 90.145 C 360.270 90.018,360.000 89.664,360.000 89.357 C 360.000 89.051,359.730 88.800,359.400 88.800 C 359.070 88.800,358.800 88.530,358.800 88.200 C 358.800 87.867,358.444 87.600,358.000 87.600 C 357.467 87.600,357.200 87.333,357.200 86.800 C 357.200 86.356,356.933 86.000,356.600 86.000 C 356.270 86.000,356.000 85.730,356.000 85.400 C 356.000 85.067,355.644 84.800,355.200 84.800 C 354.748 84.800,354.400 84.533,354.400 84.187 C 354.400 83.851,354.130 83.471,353.800 83.345 C 353.470 83.218,353.200 82.864,353.200 82.557 C 353.200 82.251,352.840 82.000,352.400 82.000 C 351.956 82.000,351.600 81.733,351.600 81.400 C 351.600 81.070,351.283 80.800,350.896 80.800 C 350.509 80.800,349.968 80.440,349.693 80.000 C 349.418 79.560,348.835 79.200,348.397 79.200 C 347.955 79.200,347.600 78.932,347.600 78.600 C 347.600 78.270,347.324 78.000,346.987 78.000 C 346.651 78.000,346.271 77.730,346.145 77.400 C 346.013 77.058,345.417 76.800,344.757 76.800 C 343.867 76.800,343.600 76.616,343.600 76.000 C 343.600 75.352,343.333 75.200,342.200 75.200 C 341.222 75.200,340.800 75.019,340.800 74.600 C 340.800 74.229,340.424 74.000,339.814 74.000 C 339.238 74.000,338.650 73.668,338.400 73.200 C 338.125 72.686,337.562 72.400,336.829 72.400 C 336.182 72.400,335.586 72.140,335.455 71.800 C 335.303 71.403,334.676 71.200,333.600 71.200 C 332.524 71.200,331.897 70.997,331.745 70.600 C 331.591 70.200,330.961 70.000,329.853 70.000 C 328.626 70.000,328.062 69.791,327.693 69.200 C 327.276 68.532,326.760 68.400,324.568 68.400 C 322.768 68.400,321.754 68.211,321.343 67.800 C 320.448 66.905,299.152 66.905,298.257 67.800 C 297.859 68.198,296.861 68.400,295.291 68.400 C 293.432 68.400,292.769 68.572,292.200 69.200 C 291.693 69.760,290.968 70.000,289.781 70.000 C 288.643 70.000,288.010 70.197,287.855 70.600 C 287.703 70.997,287.076 71.200,286.000 71.200 C 284.924 71.200,284.297 71.403,284.145 71.800 C 284.014 72.140,283.418 72.400,282.771 72.400 C 282.038 72.400,281.475 72.686,281.200 73.200 C 280.950 73.668,280.362 74.000,279.786 74.000 C 279.176 74.000,278.800 74.229,278.800 74.600 C 278.800 75.019,278.378 75.200,277.400 75.200 C 276.267 75.200,276.000 75.352,276.000 76.000 C 276.000 76.622,275.733 76.800,274.800 76.800 C 274.000 76.800,273.600 77.000,273.600 77.400 C 273.600 77.733,273.244 78.000,272.800 78.000 C 272.356 78.000,272.000 78.267,272.000 78.600 C 272.000 78.932,271.645 79.200,271.203 79.200 C 270.765 79.200,270.182 79.560,269.907 80.000 C 269.632 80.440,269.091 80.800,268.704 80.800 C 268.317 80.800,268.000 81.070,268.000 81.400 C 268.000 81.730,267.800 82.000,267.556 82.000 C 266.942 82.000,265.215 83.690,265.207 84.300 C 265.203 84.575,264.840 84.800,264.400 84.800 C 263.956 84.800,263.600 85.067,263.600 85.400 C 263.600 85.730,263.330 86.000,263.000 86.000 C 262.667 86.000,262.400 86.356,262.400 86.800 C 262.400 87.244,262.133 87.600,261.800 87.600 C 261.470 87.600,261.200 87.870,261.200 88.200 C 261.200 88.533,260.844 88.800,260.400 88.800 C 259.960 88.800,259.600 89.051,259.600 89.357 C 259.600 89.664,259.330 90.018,259.000 90.145 C 258.670 90.271,258.400 90.651,258.400 90.987 C 258.400 91.324,258.142 91.600,257.827 91.600 C 257.512 91.600,257.140 91.960,257.000 92.400 C 256.860 92.840,256.596 93.200,256.412 93.200 C 256.229 93.200,255.890 93.740,255.660 94.400 C 255.430 95.060,255.052 95.600,254.821 95.600 C 254.589 95.600,254.400 95.864,254.400 96.186 C 254.400 96.508,254.040 96.965,253.600 97.200 C 253.160 97.435,252.800 97.987,252.800 98.427 C 252.800 98.866,252.530 99.329,252.200 99.455 C 251.870 99.582,251.600 100.007,251.600 100.400 C 251.600 100.793,251.353 101.209,251.051 101.325 C 250.750 101.441,250.381 102.022,250.232 102.616 C 250.083 103.210,249.699 103.958,249.380 104.277 C 248.886 104.771,248.584 106.229,248.753 107.300 C 248.779 107.465,248.575 107.555,248.300 107.500 C 247.996 107.439,247.749 107.941,247.668 108.785 C 247.593 109.581,247.210 110.398,246.768 110.707 C 246.207 111.101,246.000 111.723,246.000 113.023 C 246.000 114.336,245.843 114.800,245.400 114.800 C 244.925 114.800,244.800 115.373,244.800 117.557 C 244.800 119.503,244.641 120.375,244.260 120.522 C 243.545 120.796,243.217 125.504,243.174 136.105 C 243.152 141.490,243.001 144.324,242.743 144.165 C 242.525 144.030,242.251 144.285,242.134 144.732 C 242.017 145.179,241.669 145.641,241.361 145.760 C 241.052 145.878,240.800 146.238,240.800 146.560 C 240.800 146.881,240.395 147.206,239.900 147.282 C 239.405 147.357,239.045 147.640,239.100 147.909 C 239.155 148.179,239.065 148.379,238.900 148.353 C 237.614 148.150,236.800 148.478,236.800 149.200 C 236.800 149.824,236.533 150.000,235.587 150.000 C 234.879 150.000,234.279 150.249,234.145 150.600 C 234.018 150.930,233.658 151.200,233.345 151.200 C 233.031 151.200,232.671 151.470,232.545 151.800 C 232.418 152.130,231.867 152.400,231.320 152.400 C 230.662 152.400,230.254 152.671,230.116 153.200 C 229.981 153.718,229.570 154.000,228.953 154.000 C 228.429 154.000,228.000 154.162,228.000 154.361 C 228.000 154.559,227.460 154.910,226.800 155.140 C 226.140 155.370,225.600 155.733,225.600 155.947 C 225.600 156.161,225.060 156.455,224.400 156.600 C 223.740 156.745,223.200 157.119,223.200 157.432 C 223.200 157.794,222.773 158.000,222.020 158.000 C 221.371 158.000,220.696 158.229,220.520 158.508 C 220.344 158.788,219.705 159.234,219.100 159.500 C 218.495 159.765,218.000 160.167,218.000 160.391 C 218.000 160.616,217.640 160.800,217.200 160.800 C 216.756 160.800,216.400 161.067,216.400 161.400 C 216.400 161.861,215.889 162.000,214.200 162.000 C 212.511 162.000,212.000 161.861,212.000 161.400 C 212.000 161.070,211.683 160.800,211.296 160.800 C 210.909 160.800,210.368 160.440,210.093 160.000 C 209.818 159.560,209.254 159.200,208.839 159.200 C 208.425 159.200,207.982 158.930,207.855 158.600 C 207.721 158.249,207.121 158.000,206.413 158.000 C 205.601 158.000,205.200 157.801,205.200 157.400 C 205.200 157.066,204.844 156.800,204.396 156.800 C 203.954 156.800,203.284 156.440,202.907 156.000 C 202.527 155.556,201.727 155.200,201.111 155.200 C 200.390 155.200,200.000 154.989,200.000 154.600 C 200.000 154.181,199.578 154.000,198.600 154.000 C 197.467 154.000,197.200 153.848,197.200 153.200 C 197.200 152.760,196.975 152.398,196.700 152.396 C 195.849 152.390,192.371 150.562,192.660 150.273 C 192.810 150.123,192.384 150.000,191.713 150.000 C 190.830 150.000,190.436 149.779,190.284 149.200 C 190.132 148.617,189.738 148.400,188.837 148.400 C 188.004 148.400,187.600 148.204,187.600 147.800 C 187.600 147.405,187.205 147.200,186.447 147.200 C 185.630 147.200,185.232 146.967,185.084 146.400 C 184.942 145.856,184.538 145.600,183.825 145.600 C 183.247 145.600,182.671 145.330,182.545 145.000 C 182.418 144.670,182.019 144.394,181.657 144.387 C 179.644 144.348,179.600 144.088,179.600 132.284 C 179.600 123.016,179.504 121.161,179.000 120.657 C 178.627 120.284,178.400 119.302,178.400 118.061 C 178.400 115.693,178.115 114.800,177.357 114.800 C 176.955 114.800,176.800 114.241,176.800 112.787 C 176.800 111.368,176.623 110.707,176.200 110.545 C 175.870 110.418,175.600 109.898,175.600 109.390 C 175.600 108.108,175.188 107.160,174.748 107.432 C 174.546 107.557,174.421 107.511,174.471 107.330 C 174.713 106.453,173.910 104.000,173.382 104.000 C 173.036 104.000,172.800 103.614,172.800 103.049 C 172.800 102.526,172.530 101.874,172.200 101.600 C 171.870 101.326,171.600 100.807,171.600 100.447 C 171.600 100.087,171.240 99.568,170.800 99.293 C 170.360 99.018,170.000 98.454,170.000 98.039 C 170.000 97.625,169.730 97.182,169.400 97.055 C 169.070 96.929,168.800 96.549,168.800 96.213 C 168.800 95.876,168.544 95.600,168.232 95.600 C 167.919 95.600,167.545 95.060,167.400 94.400 C 167.255 93.740,166.881 93.200,166.568 93.200 C 166.256 93.200,166.000 92.840,166.000 92.400 C 166.000 91.956,165.733 91.600,165.400 91.600 C 165.070 91.600,164.800 91.342,164.800 91.027 C 164.800 90.712,164.440 90.340,164.000 90.200 C 163.560 90.060,163.200 89.688,163.200 89.373 C 163.200 89.058,162.930 88.800,162.600 88.800 C 162.270 88.800,162.000 88.530,162.000 88.200 C 162.000 87.870,161.730 87.600,161.400 87.600 C 161.070 87.600,160.800 87.313,160.800 86.963 C 160.800 86.612,160.440 86.231,160.000 86.116 C 159.560 86.001,159.200 85.658,159.200 85.353 C 159.200 85.049,158.930 84.800,158.600 84.800 C 158.270 84.800,158.000 84.542,158.000 84.227 C 158.000 83.912,157.640 83.540,157.200 83.400 C 156.760 83.260,156.400 82.888,156.400 82.573 C 156.400 82.258,156.130 82.000,155.800 82.000 C 155.470 82.000,155.200 81.814,155.200 81.587 C 155.200 81.361,154.899 81.059,154.531 80.918 C 154.162 80.777,153.532 80.332,153.131 79.931 C 152.729 79.529,152.130 79.200,151.800 79.200 C 151.470 79.200,151.200 78.930,151.200 78.600 C 151.200 78.267,150.844 78.000,150.400 78.000 C 149.956 78.000,149.600 77.733,149.600 77.400 C 149.600 77.005,149.205 76.800,148.447 76.800 C 147.630 76.800,147.232 76.567,147.084 76.000 C 146.959 75.521,146.538 75.200,146.037 75.200 C 145.577 75.200,145.200 75.023,145.200 74.808 C 145.200 74.592,144.724 74.296,144.142 74.150 C 143.560 74.004,142.750 73.550,142.342 73.142 C 141.934 72.734,141.163 72.400,140.629 72.400 C 140.094 72.400,139.387 72.130,139.057 71.800 C 138.727 71.470,137.924 71.200,137.271 71.200 C 136.586 71.200,135.988 70.947,135.855 70.600 C 135.687 70.160,134.993 70.000,133.259 70.000 C 131.230 70.000,130.864 69.886,130.684 69.200 C 130.498 68.488,130.138 68.400,127.425 68.400 C 125.083 68.400,124.321 68.261,124.145 67.800 C 123.948 67.286,122.289 67.200,112.606 67.200 C 103.042 67.200,101.221 67.293,100.800 67.800 M318.143 89.000 C 318.544 89.401,319.544 89.600,321.157 89.600 C 323.151 89.600,323.645 89.738,323.994 90.388 C 324.318 90.994,324.683 91.123,325.566 90.947 C 326.413 90.777,326.939 90.939,327.558 91.558 C 328.021 92.021,328.850 92.400,329.400 92.400 C 329.950 92.400,330.400 92.589,330.400 92.821 C 330.400 93.052,330.940 93.430,331.600 93.660 C 332.260 93.890,332.800 94.241,332.800 94.439 C 332.800 94.638,333.089 94.800,333.442 94.800 C 333.998 94.800,334.708 95.269,337.083 97.206 C 337.349 97.423,337.709 97.602,337.883 97.605 C 338.384 97.613,341.600 100.721,341.600 101.197 C 341.600 101.432,341.870 101.729,342.200 101.855 C 342.530 101.982,342.800 102.254,342.800 102.459 C 342.800 102.907,344.185 104.862,345.700 106.552 C 346.305 107.226,346.800 108.092,346.800 108.475 C 346.800 108.858,347.160 109.365,347.600 109.600 C 348.040 109.835,348.400 110.382,348.400 110.814 C 348.400 111.246,348.769 111.969,349.220 112.420 C 349.750 112.950,349.953 113.517,349.794 114.020 C 349.621 114.564,349.734 114.800,350.165 114.800 C 350.826 114.800,351.442 116.485,351.026 117.157 C 350.890 117.379,351.143 117.755,351.589 117.994 C 352.241 118.343,352.400 118.828,352.400 120.470 C 352.400 121.780,352.607 122.671,352.978 122.956 C 353.934 123.690,354.035 140.692,353.088 141.385 C 352.591 141.749,352.400 142.462,352.400 143.957 C 352.400 145.426,352.226 146.092,351.800 146.255 C 351.470 146.382,351.200 146.902,351.200 147.410 C 351.200 148.779,350.792 149.600,350.111 149.600 C 349.696 149.600,349.575 149.861,349.724 150.430 C 349.858 150.945,349.649 151.551,349.170 152.030 C 348.747 152.453,348.400 153.177,348.400 153.637 C 348.400 154.138,348.079 154.559,347.600 154.684 C 347.082 154.819,346.800 155.230,346.800 155.847 C 346.800 156.371,346.614 156.800,346.387 156.800 C 346.161 156.800,345.861 157.115,345.722 157.500 C 345.468 158.205,344.793 159.056,343.500 160.303 C 343.115 160.674,342.800 161.211,342.800 161.497 C 342.800 162.172,338.352 166.796,337.700 166.798 C 337.425 166.799,337.200 166.980,337.200 167.200 C 337.200 167.420,336.930 167.600,336.600 167.600 C 336.270 167.600,335.658 167.942,335.239 168.361 C 334.821 168.779,334.101 169.241,333.639 169.387 C 333.178 169.534,332.800 169.822,332.800 170.027 C 332.800 170.232,332.530 170.400,332.200 170.400 C 331.870 170.400,331.240 170.760,330.800 171.200 C 330.360 171.640,329.615 172.000,329.144 172.000 C 328.673 172.000,328.070 172.298,327.804 172.662 C 327.519 173.053,326.705 173.346,325.824 173.377 C 324.844 173.411,324.190 173.674,323.929 174.142 C 323.612 174.707,323.094 174.835,321.432 174.758 C 319.990 174.691,319.036 174.870,318.378 175.330 C 316.574 176.594,304.000 176.223,304.000 174.907 C 304.000 174.406,303.566 174.353,301.372 174.588 C 298.924 174.850,298.728 174.812,298.525 174.035 C 298.345 173.347,297.995 173.200,296.541 173.200 C 295.340 173.200,294.701 173.008,294.545 172.600 C 294.418 172.270,293.884 172.000,293.357 172.000 C 292.831 172.000,292.040 171.640,291.600 171.200 C 291.160 170.760,290.530 170.400,290.200 170.400 C 289.870 170.400,289.600 170.220,289.600 170.000 C 289.600 169.780,289.250 169.600,288.823 169.600 C 288.395 169.600,287.810 169.266,287.523 168.857 C 287.235 168.449,286.595 167.987,286.100 167.830 C 285.605 167.674,285.200 167.378,285.200 167.173 C 285.200 166.968,284.957 166.800,284.659 166.800 C 283.993 166.800,279.600 162.182,279.600 161.483 C 279.600 161.205,279.285 160.674,278.900 160.303 C 277.607 159.056,276.932 158.205,276.678 157.500 C 276.539 157.115,276.239 156.800,276.013 156.800 C 275.786 156.800,275.600 156.371,275.600 155.847 C 275.600 155.230,275.318 154.819,274.800 154.684 C 274.321 154.559,274.000 154.138,274.000 153.637 C 274.000 153.177,273.631 152.431,273.180 151.980 C 272.650 151.450,272.447 150.883,272.606 150.380 C 272.775 149.850,272.667 149.600,272.270 149.600 C 271.607 149.600,271.200 148.767,271.200 147.410 C 271.200 146.902,270.930 146.382,270.600 146.255 C 270.184 146.096,270.000 145.447,270.000 144.144 C 270.000 142.914,269.758 141.995,269.300 141.489 C 268.285 140.368,268.332 123.731,269.353 122.985 C 269.805 122.655,270.000 121.887,270.000 120.443 C 270.000 118.974,270.174 118.308,270.600 118.145 C 270.930 118.018,271.200 117.498,271.200 116.990 C 271.200 115.687,271.600 114.800,272.187 114.800 C 272.503 114.800,272.620 114.440,272.503 113.829 C 272.372 113.144,272.565 112.703,273.159 112.333 C 273.622 112.044,274.000 111.441,274.000 110.993 C 274.000 110.544,274.360 109.870,274.800 109.493 C 275.240 109.116,275.600 108.578,275.600 108.297 C 275.600 108.016,276.495 106.709,277.590 105.393 C 278.684 104.077,279.584 102.857,279.590 102.683 C 279.613 101.945,283.976 97.600,284.693 97.600 C 284.972 97.600,285.200 97.423,285.200 97.208 C 285.200 96.992,285.652 96.702,286.205 96.563 C 286.758 96.424,287.356 96.049,287.535 95.730 C 287.714 95.411,288.176 95.103,288.562 95.047 C 288.948 94.990,289.385 94.759,289.532 94.533 C 289.679 94.308,290.295 94.002,290.900 93.854 C 291.505 93.706,292.000 93.318,292.000 92.992 C 292.000 92.606,292.402 92.400,293.157 92.400 C 293.842 92.400,294.413 92.142,294.556 91.769 C 294.734 91.306,295.238 91.170,296.457 91.258 C 297.870 91.360,298.166 91.244,298.450 90.477 C 298.764 89.628,298.933 89.591,301.392 89.843 C 303.599 90.069,304.000 90.015,304.000 89.489 C 304.000 88.244,316.940 87.797,318.143 89.000 M120.146 90.202 C 120.776 90.531,122.136 90.800,123.169 90.800 C 124.202 90.800,125.396 91.064,125.824 91.387 C 126.251 91.710,127.071 91.980,127.646 91.987 C 128.221 91.994,129.150 92.360,129.709 92.800 C 130.269 93.240,130.991 93.600,131.314 93.600 C 131.637 93.600,132.126 93.870,132.400 94.200 C 132.674 94.530,133.133 94.800,133.420 94.800 C 133.708 94.800,134.181 95.027,134.471 95.305 C 134.762 95.582,135.495 96.028,136.100 96.296 C 136.705 96.564,137.200 96.967,137.200 97.191 C 137.200 97.416,137.371 97.600,137.580 97.600 C 138.899 97.600,144.790 103.005,144.797 104.222 C 144.799 104.454,145.430 105.331,146.200 106.172 C 146.970 107.013,147.600 107.864,147.600 108.063 C 147.600 108.262,147.870 108.529,148.200 108.655 C 148.530 108.782,148.800 109.310,148.800 109.829 C 148.800 110.362,149.147 110.958,149.600 111.200 C 150.068 111.450,150.400 112.038,150.400 112.614 C 150.400 113.224,150.629 113.600,151.000 113.600 C 151.388 113.600,151.600 113.989,151.600 114.704 C 151.600 115.374,151.914 116.004,152.400 116.307 C 152.875 116.604,153.200 117.240,153.200 117.872 C 153.200 118.458,153.499 119.268,153.865 119.671 C 154.262 120.110,154.507 121.000,154.474 121.882 C 154.440 122.784,154.687 123.654,155.109 124.120 C 156.238 125.366,156.334 140.951,155.222 142.455 C 154.698 143.165,154.461 144.071,154.506 145.199 C 154.554 146.387,154.371 147.032,153.887 147.386 C 153.493 147.674,153.200 148.418,153.200 149.130 C 153.200 149.962,152.936 150.513,152.400 150.800 C 151.928 151.053,151.600 151.638,151.600 152.227 C 151.600 152.776,151.330 153.329,151.000 153.455 C 150.670 153.582,150.400 154.133,150.400 154.680 C 150.400 155.338,150.129 155.746,149.600 155.884 C 149.116 156.011,148.800 156.430,148.800 156.947 C 148.800 157.416,148.215 158.470,147.500 159.288 C 145.431 161.656,144.800 162.530,144.800 163.028 C 144.800 163.509,140.662 168.000,140.218 168.000 C 139.819 168.000,137.432 169.750,137.080 170.300 C 136.904 170.575,136.515 170.800,136.215 170.800 C 135.915 170.800,134.713 171.430,133.544 172.200 C 132.375 172.970,131.118 173.600,130.752 173.600 C 130.385 173.600,129.982 173.870,129.855 174.200 C 129.709 174.583,129.093 174.800,128.157 174.800 C 127.261 174.800,126.502 175.054,126.211 175.452 C 125.907 175.868,124.948 176.168,123.567 176.280 C 122.375 176.376,120.967 176.668,120.438 176.928 C 118.959 177.654,106.729 177.572,105.835 176.829 C 105.455 176.514,104.151 176.224,102.918 176.181 C 101.334 176.125,100.584 175.914,100.325 175.451 C 100.100 175.050,99.441 174.800,98.609 174.800 C 97.865 174.800,96.996 174.539,96.677 174.220 C 96.358 173.901,95.632 173.523,95.065 173.381 C 94.497 173.238,93.823 172.869,93.567 172.561 C 93.311 172.252,92.848 172.000,92.538 172.000 C 92.229 172.000,91.871 171.730,91.745 171.400 C 91.618 171.070,91.084 170.800,90.557 170.800 C 90.031 170.800,89.600 170.638,89.600 170.440 C 89.600 170.129,87.362 168.545,86.215 168.045 C 85.546 167.753,81.600 163.458,81.598 163.019 C 81.597 162.789,80.948 161.894,80.156 161.032 C 79.364 160.170,78.340 158.730,77.881 157.832 C 77.421 156.934,76.810 156.056,76.522 155.880 C 76.235 155.704,76.000 155.162,76.000 154.676 C 76.000 154.190,75.640 153.568,75.200 153.293 C 74.760 153.018,74.400 152.364,74.400 151.839 C 74.400 151.315,74.130 150.782,73.800 150.655 C 73.428 150.513,73.200 149.904,73.200 149.055 C 73.200 148.207,72.972 147.598,72.600 147.455 C 72.174 147.292,72.000 146.626,72.000 145.157 C 72.000 143.733,71.803 142.944,71.368 142.626 C 70.370 141.896,70.321 124.900,71.315 124.343 C 71.814 124.064,72.000 123.436,72.000 122.029 C 72.000 120.801,72.218 119.917,72.600 119.600 C 72.930 119.326,73.200 118.586,73.200 117.954 C 73.200 117.268,73.500 116.620,73.946 116.341 C 74.379 116.070,74.615 115.578,74.507 115.167 C 74.402 114.763,74.683 114.150,75.161 113.741 C 75.622 113.345,76.000 112.709,76.000 112.325 C 76.000 111.942,76.360 111.435,76.800 111.200 C 77.240 110.965,77.600 110.411,77.600 109.969 C 77.600 109.527,77.785 108.949,78.010 108.683 C 78.236 108.417,79.134 107.390,80.005 106.400 C 80.876 105.410,81.591 104.399,81.594 104.154 C 81.607 103.157,87.702 97.600,88.784 97.600 C 89.013 97.600,89.200 97.429,89.200 97.221 C 89.200 97.013,90.145 96.368,91.300 95.789 C 92.455 95.211,93.684 94.481,94.031 94.168 C 94.379 93.856,94.905 93.600,95.200 93.600 C 95.495 93.600,96.067 93.301,96.471 92.936 C 96.875 92.570,97.807 92.250,98.542 92.225 C 99.277 92.199,100.189 91.868,100.568 91.489 C 101.029 91.028,101.894 90.800,103.183 90.800 C 104.242 90.800,105.624 90.531,106.254 90.202 C 107.890 89.349,118.510 89.349,120.146 90.202 M307.716 118.000 C 307.539 118.675,307.170 118.800,305.353 118.800 C 303.706 118.800,303.200 118.941,303.200 119.400 C 303.200 119.819,302.778 120.000,301.800 120.000 C 300.822 120.000,300.400 120.181,300.400 120.600 C 300.400 120.930,300.142 121.200,299.827 121.200 C 299.512 121.200,299.140 121.560,299.000 122.000 C 298.860 122.440,298.488 122.800,298.173 122.800 C 297.858 122.800,297.621 122.935,297.647 123.100 C 297.844 124.345,297.519 125.600,297.000 125.600 C 296.570 125.600,296.400 126.039,296.400 127.153 C 296.400 128.370,296.227 128.752,295.600 128.916 C 294.861 129.109,294.800 129.462,294.800 133.563 C 294.800 137.733,294.848 138.000,295.600 138.000 C 296.281 138.000,296.400 138.267,296.400 139.800 C 296.400 141.133,296.556 141.600,297.000 141.600 C 297.419 141.600,297.600 142.022,297.600 143.000 C 297.600 143.930,297.787 144.400,298.157 144.400 C 298.464 144.400,298.818 144.670,298.945 145.000 C 299.071 145.330,299.451 145.600,299.787 145.600 C 300.133 145.600,300.400 145.948,300.400 146.400 C 300.400 147.048,300.667 147.200,301.800 147.200 C 302.778 147.200,303.200 147.381,303.200 147.800 C 303.200 148.261,303.711 148.400,305.400 148.400 C 307.521 148.400,308.501 149.170,307.100 149.735 C 306.825 149.846,308.400 149.930,310.600 149.922 C 312.800 149.914,314.285 149.825,313.900 149.724 C 312.200 149.280,313.205 148.400,315.413 148.400 C 317.010 148.400,317.689 148.233,317.855 147.800 C 317.989 147.452,318.587 147.200,319.280 147.200 C 320.138 147.200,320.534 146.975,320.684 146.400 C 320.799 145.960,321.142 145.600,321.447 145.600 C 321.751 145.600,322.000 145.330,322.000 145.000 C 322.000 144.670,322.270 144.400,322.600 144.400 C 323.019 144.400,323.200 143.978,323.200 143.000 C 323.200 141.838,323.345 141.600,324.052 141.600 C 324.788 141.600,324.877 141.422,324.706 140.300 C 324.463 138.709,324.687 138.000,325.433 138.000 C 326.449 138.000,326.240 128.956,325.218 128.689 C 324.565 128.518,324.475 128.247,324.671 127.042 C 324.878 125.764,324.808 125.600,324.052 125.600 C 323.345 125.600,323.200 125.362,323.200 124.200 C 323.200 123.222,323.019 122.800,322.600 122.800 C 322.267 122.800,322.000 122.444,322.000 122.000 C 322.000 121.556,321.733 121.200,321.400 121.200 C 321.070 121.200,320.800 120.930,320.800 120.600 C 320.800 120.181,320.378 120.000,319.400 120.000 C 318.422 120.000,318.000 119.819,318.000 119.400 C 318.000 118.933,317.467 118.800,315.600 118.800 C 313.467 118.800,313.200 118.711,313.200 118.000 C 313.200 117.281,312.933 117.200,310.563 117.200 C 308.262 117.200,307.898 117.302,307.716 118.000 M109.716 120.800 C 109.544 121.459,109.170 121.600,107.600 121.600 C 106.017 121.600,105.657 121.739,105.480 122.416 C 105.308 123.073,105.060 123.180,104.209 122.966 C 103.347 122.750,103.110 122.859,102.929 123.550 C 102.807 124.018,102.441 124.400,102.116 124.400 C 101.791 124.400,101.431 124.760,101.316 125.200 C 101.195 125.662,100.770 126.000,100.310 126.000 C 99.653 126.000,99.559 126.181,99.773 127.033 C 99.980 127.858,99.867 128.110,99.216 128.280 C 98.571 128.448,98.400 128.820,98.400 130.047 C 98.400 131.345,98.266 131.600,97.582 131.600 C 96.798 131.600,96.767 131.810,96.825 136.637 C 96.869 140.278,97.007 141.553,97.323 141.237 C 98.101 140.459,98.400 140.769,98.400 142.353 C 98.400 143.600,98.567 143.950,99.250 144.129 C 99.926 144.306,100.048 144.554,99.849 145.348 C 99.658 146.109,99.778 146.403,100.356 146.586 C 100.773 146.718,101.206 147.181,101.319 147.613 C 101.433 148.046,101.812 148.400,102.163 148.400 C 102.513 148.400,102.800 148.670,102.800 149.000 C 102.800 149.395,103.195 149.600,103.953 149.600 C 104.784 149.600,105.167 149.832,105.323 150.429 C 105.518 151.171,105.734 151.229,107.395 150.980 C 109.067 150.729,109.271 150.785,109.471 151.551 C 109.748 152.607,115.200 152.885,115.200 151.843 C 115.200 151.047,116.221 150.762,118.032 151.051 C 119.443 151.277,119.600 151.217,119.600 150.451 C 119.600 149.745,119.839 149.600,121.000 149.600 C 121.978 149.600,122.400 149.419,122.400 149.000 C 122.400 148.670,122.687 148.400,123.037 148.400 C 123.388 148.400,123.773 148.025,123.893 147.568 C 124.029 147.046,124.352 146.799,124.760 146.905 C 125.293 147.045,125.383 146.800,125.263 145.538 C 125.135 144.195,125.223 144.000,125.958 144.000 C 126.674 144.000,126.800 143.760,126.800 142.400 C 126.800 141.244,126.967 140.800,127.400 140.800 C 127.899 140.800,128.000 140.022,128.000 136.200 C 128.000 132.378,127.899 131.600,127.400 131.600 C 126.967 131.600,126.800 131.156,126.800 130.000 C 126.800 128.637,126.674 128.400,125.953 128.400 C 125.255 128.400,125.142 128.216,125.307 127.351 C 125.459 126.558,125.324 126.253,124.754 126.104 C 124.339 125.995,124.000 125.568,124.000 125.153 C 124.000 124.682,123.718 124.400,123.247 124.400 C 122.830 124.400,122.400 124.043,122.284 123.600 C 122.132 123.017,121.738 122.800,120.837 122.800 C 120.004 122.800,119.600 122.604,119.600 122.200 C 119.600 121.745,119.107 121.600,117.563 121.600 C 115.862 121.600,115.491 121.468,115.316 120.800 C 115.134 120.104,114.770 120.000,112.516 120.000 C 110.262 120.000,109.898 120.104,109.716 120.800 M119.000 268.846 C 119.880 269.080,121.758 269.416,123.173 269.592 C 124.779 269.792,125.923 270.154,126.217 270.556 C 126.476 270.910,127.240 271.200,127.916 271.200 C 128.591 271.200,129.413 271.470,129.743 271.800 C 130.073 272.130,130.601 272.400,130.917 272.400 C 131.234 272.400,131.950 272.760,132.509 273.200 C 133.069 273.640,133.701 274.000,133.914 274.000 C 134.127 274.000,134.526 274.270,134.800 274.600 C 135.074 274.930,135.627 275.200,136.029 275.200 C 136.431 275.200,136.904 275.425,137.080 275.700 C 137.428 276.244,139.818 278.000,140.210 278.000 C 140.631 278.000,144.800 282.541,144.800 282.999 C 144.800 283.471,145.454 284.370,147.500 286.712 C 148.215 287.530,148.800 288.584,148.800 289.053 C 148.800 289.570,149.116 289.989,149.600 290.116 C 150.129 290.254,150.400 290.662,150.400 291.320 C 150.400 291.867,150.670 292.418,151.000 292.545 C 151.343 292.676,151.600 293.273,151.600 293.941 C 151.600 294.770,151.831 295.167,152.400 295.316 C 152.992 295.471,153.200 295.862,153.200 296.818 C 153.200 297.579,153.483 298.319,153.887 298.614 C 154.375 298.971,154.553 299.615,154.504 300.846 C 154.459 301.993,154.665 302.830,155.118 303.330 C 156.154 304.475,156.146 320.733,155.109 321.879 C 154.687 322.346,154.440 323.216,154.474 324.118 C 154.507 325.000,154.262 325.890,153.865 326.329 C 153.499 326.732,153.200 327.542,153.200 328.128 C 153.200 328.760,152.875 329.396,152.400 329.693 C 151.914 329.996,151.600 330.626,151.600 331.296 C 151.600 332.011,151.388 332.400,151.000 332.400 C 150.629 332.400,150.400 332.776,150.400 333.386 C 150.400 333.962,150.068 334.550,149.600 334.800 C 149.132 335.050,148.800 335.638,148.800 336.214 C 148.800 336.756,148.614 337.200,148.387 337.200 C 148.161 337.200,147.872 337.467,147.747 337.794 C 147.622 338.121,146.907 339.056,146.160 339.872 C 145.412 340.688,144.800 341.604,144.800 341.908 C 144.800 343.096,136.786 350.000,135.408 350.000 C 135.073 350.000,134.800 350.177,134.800 350.392 C 134.800 350.608,134.357 350.896,133.816 351.032 C 133.275 351.167,132.623 351.531,132.367 351.839 C 132.111 352.148,131.637 352.400,131.314 352.400 C 130.991 352.400,130.269 352.760,129.709 353.200 C 129.150 353.640,128.198 354.000,127.595 354.000 C 126.992 354.000,126.274 354.270,126.000 354.600 C 125.674 354.993,124.782 355.200,123.412 355.200 C 122.263 355.200,120.743 355.489,120.035 355.843 C 118.198 356.759,108.190 356.753,106.350 355.835 C 105.650 355.486,104.205 355.200,103.139 355.200 C 101.827 355.200,100.973 354.974,100.498 354.500 C 100.111 354.115,99.182 353.779,98.432 353.754 C 97.676 353.729,96.855 353.417,96.590 353.054 C 96.327 352.694,95.826 352.400,95.476 352.400 C 95.126 352.400,94.049 351.866,93.083 351.214 C 92.116 350.562,90.847 349.846,90.263 349.624 C 89.678 349.402,89.200 349.035,89.200 348.810 C 89.200 348.584,89.013 348.400,88.784 348.400 C 87.570 348.400,83.575 344.745,81.449 341.690 C 80.641 340.530,79.670 339.238,79.290 338.819 C 77.905 337.290,77.600 336.822,77.600 336.220 C 77.600 335.883,77.240 335.382,76.800 335.107 C 76.360 334.832,76.000 334.241,76.000 333.793 C 76.000 333.344,75.622 332.655,75.161 332.259 C 74.683 331.850,74.402 331.237,74.507 330.833 C 74.615 330.422,74.379 329.930,73.946 329.659 C 73.500 329.380,73.200 328.732,73.200 328.046 C 73.200 327.414,72.930 326.674,72.600 326.400 C 72.229 326.092,72.000 325.213,72.000 324.095 C 72.000 322.926,71.782 322.128,71.381 321.835 C 70.401 321.119,70.346 304.365,71.320 303.288 C 71.757 302.805,72.000 301.865,72.000 300.656 C 72.000 299.353,72.184 298.704,72.600 298.545 C 72.939 298.414,73.200 297.819,73.200 297.173 C 73.200 296.527,73.566 295.690,74.043 295.246 C 74.506 294.814,74.769 294.274,74.628 294.045 C 74.487 293.816,74.737 293.263,75.185 292.815 C 75.633 292.367,76.000 291.646,76.000 291.214 C 76.000 290.782,76.360 290.235,76.800 290.000 C 77.240 289.765,77.600 289.289,77.600 288.943 C 77.600 288.597,78.500 287.182,79.600 285.800 C 80.700 284.418,81.600 283.116,81.600 282.909 C 81.600 282.311,85.265 278.720,87.222 277.401 C 88.200 276.742,89.144 275.977,89.320 275.701 C 89.496 275.426,89.969 275.200,90.371 275.200 C 90.773 275.200,91.326 274.930,91.600 274.600 C 91.874 274.270,92.324 274.000,92.600 274.000 C 92.876 274.000,93.311 273.748,93.567 273.439 C 93.823 273.131,94.497 272.762,95.065 272.619 C 95.632 272.477,96.358 272.099,96.677 271.780 C 96.996 271.461,97.815 271.200,98.497 271.200 C 99.179 271.200,100.078 270.891,100.495 270.514 C 101.016 270.043,101.828 269.853,103.092 269.908 C 104.104 269.952,105.173 269.788,105.468 269.543 C 106.788 268.448,115.770 267.985,119.000 268.846 M316.010 269.310 C 316.635 269.721,317.767 269.959,318.978 269.935 C 320.359 269.907,321.075 270.088,321.411 270.548 C 321.674 270.907,322.426 271.200,323.083 271.200 C 323.740 271.200,324.693 271.560,325.200 272.000 C 325.707 272.440,326.461 272.800,326.874 272.800 C 327.287 272.800,327.729 273.070,327.855 273.400 C 327.982 273.730,328.404 274.000,328.794 274.000 C 329.183 274.000,329.726 274.270,330.000 274.600 C 330.274 274.930,330.827 275.200,331.229 275.200 C 331.631 275.200,332.104 275.425,332.280 275.700 C 332.616 276.225,335.011 278.000,335.384 278.000 C 335.837 278.000,338.843 281.270,340.247 283.290 C 341.053 284.451,342.002 285.706,342.356 286.081 C 343.637 287.435,343.972 287.949,344.220 288.937 C 344.359 289.490,344.726 290.039,345.036 290.159 C 345.346 290.278,345.600 290.831,345.600 291.387 C 345.600 291.986,345.828 292.400,346.157 292.400 C 346.761 292.400,347.200 293.238,347.200 294.390 C 347.200 294.788,347.470 295.218,347.800 295.345 C 348.172 295.487,348.400 296.096,348.400 296.945 C 348.400 297.793,348.628 298.402,349.000 298.545 C 349.422 298.707,349.600 299.365,349.600 300.768 C 349.600 302.248,349.780 302.861,350.299 303.151 C 351.306 303.715,351.489 320.040,350.506 321.577 C 350.162 322.114,349.848 323.350,349.807 324.324 C 349.758 325.503,349.511 326.218,349.067 326.467 C 348.685 326.680,348.400 327.332,348.400 327.991 C 348.400 328.625,348.130 329.413,347.800 329.743 C 347.470 330.073,347.200 330.627,347.200 330.975 C 347.200 331.323,346.840 331.916,346.400 332.293 C 345.960 332.670,345.600 333.344,345.600 333.793 C 345.600 334.241,345.240 334.832,344.800 335.107 C 344.360 335.382,344.000 335.965,344.000 336.403 C 344.000 336.842,343.820 337.200,343.600 337.200 C 343.380 337.200,343.200 337.438,343.200 337.728 C 343.200 338.018,342.795 338.628,342.300 339.083 C 341.103 340.183,340.001 341.663,339.995 342.181 C 339.984 342.987,334.656 347.738,333.269 348.178 C 332.791 348.330,332.400 348.631,332.400 348.848 C 332.400 349.064,331.860 349.430,331.200 349.660 C 330.540 349.890,330.000 350.241,330.000 350.439 C 330.000 350.638,329.758 350.800,329.461 350.800 C 329.165 350.800,328.507 351.160,328.000 351.600 C 327.493 352.040,326.674 352.400,326.182 352.400 C 325.689 352.400,325.182 352.670,325.055 353.000 C 324.911 353.377,324.299 353.600,323.413 353.600 C 322.533 353.600,321.698 353.902,321.200 354.400 C 320.620 354.980,319.867 355.200,318.461 355.200 C 317.395 355.200,315.956 355.483,315.263 355.828 C 313.468 356.724,303.325 356.720,301.526 355.823 C 300.839 355.480,299.418 355.200,298.367 355.200 C 297.081 355.200,296.229 354.971,295.758 354.500 C 295.373 354.115,294.431 353.780,293.665 353.756 C 292.877 353.732,292.063 353.427,291.792 353.056 C 291.528 352.695,290.921 352.400,290.443 352.400 C 289.966 352.400,289.471 352.130,289.345 351.800 C 289.218 351.470,288.888 351.200,288.611 351.200 C 288.334 351.200,287.650 350.840,287.091 350.400 C 286.531 349.960,285.787 349.600,285.437 349.600 C 285.087 349.600,284.800 349.437,284.800 349.238 C 284.800 349.039,283.945 348.376,282.900 347.765 C 280.886 346.588,276.800 342.611,276.800 341.827 C 276.800 341.571,276.176 340.740,275.413 339.981 C 274.650 339.221,274.020 338.369,274.013 338.087 C 274.006 337.806,273.730 337.471,273.400 337.345 C 273.070 337.218,272.800 336.802,272.800 336.419 C 272.800 336.037,272.440 335.398,272.000 335.000 C 271.560 334.602,271.200 333.938,271.200 333.525 C 271.200 333.113,270.930 332.671,270.600 332.545 C 270.270 332.418,270.000 331.837,270.000 331.253 C 270.000 330.608,269.670 329.987,269.159 329.667 C 268.569 329.299,268.373 328.855,268.502 328.181 C 268.618 327.571,268.414 326.975,267.943 326.548 C 267.428 326.082,267.200 325.321,267.200 324.070 C 267.200 323.069,266.946 321.981,266.631 321.631 C 265.686 320.584,265.580 304.327,266.512 303.298 C 266.957 302.805,267.200 301.874,267.200 300.656 C 267.200 299.353,267.384 298.704,267.800 298.545 C 268.143 298.413,268.400 297.816,268.400 297.153 C 268.400 296.487,268.741 295.700,269.200 295.307 C 269.640 294.930,270.000 294.207,270.000 293.699 C 270.000 293.191,270.270 292.671,270.600 292.545 C 270.930 292.418,271.200 291.890,271.200 291.371 C 271.200 290.838,271.547 290.242,272.000 290.000 C 272.440 289.765,272.800 289.213,272.800 288.773 C 272.800 288.334,273.070 287.871,273.400 287.745 C 273.730 287.618,274.000 287.324,274.000 287.091 C 274.000 286.684,274.598 285.945,276.100 284.497 C 276.485 284.126,276.800 283.497,276.800 283.099 C 276.800 282.701,277.070 282.271,277.400 282.145 C 277.730 282.018,278.000 281.740,278.000 281.526 C 278.000 281.065,281.216 278.000,281.699 278.000 C 281.883 278.000,282.251 277.823,282.517 277.606 C 284.892 275.669,285.602 275.200,286.158 275.200 C 286.511 275.200,286.800 275.038,286.800 274.839 C 286.800 274.641,287.340 274.290,288.000 274.060 C 288.660 273.830,289.200 273.452,289.200 273.221 C 289.200 272.989,289.622 272.800,290.138 272.800 C 290.654 272.800,291.402 272.440,291.800 272.000 C 292.278 271.472,293.032 271.200,294.019 271.200 C 294.979 271.200,295.597 270.985,295.745 270.600 C 295.909 270.171,296.580 270.000,298.098 270.000 C 299.272 270.000,300.580 269.749,301.022 269.439 C 302.798 268.196,314.167 268.098,316.010 269.310 M108.400 295.600 C 108.400 296.303,108.133 296.400,106.200 296.400 C 104.511 296.400,104.000 296.539,104.000 297.000 C 104.000 297.404,103.596 297.600,102.763 297.600 C 101.862 297.600,101.468 297.817,101.316 298.400 C 101.201 298.840,100.858 299.200,100.553 299.200 C 100.249 299.200,100.000 299.566,100.000 300.013 C 100.000 300.459,99.730 300.929,99.400 301.055 C 99.070 301.182,98.800 301.733,98.800 302.280 C 98.800 302.938,98.529 303.346,98.000 303.484 C 97.406 303.639,97.200 304.030,97.200 305.000 C 97.200 305.970,96.994 306.361,96.400 306.516 C 95.246 306.818,95.149 315.947,96.300 315.856 C 96.837 315.813,97.005 316.118,97.022 317.162 C 97.038 318.209,97.257 318.603,97.967 318.866 C 98.636 319.113,98.833 319.430,98.682 320.009 C 98.544 320.537,98.733 320.950,99.236 321.219 C 99.656 321.444,100.000 321.821,100.000 322.058 C 100.000 322.923,101.817 324.386,102.900 324.393 C 103.731 324.398,104.000 324.596,104.000 325.200 C 104.000 325.905,104.267 326.000,106.247 326.000 C 108.296 326.000,108.475 326.070,108.284 326.800 C 108.088 327.550,108.272 327.600,111.200 327.600 C 114.178 327.600,114.315 327.560,114.105 326.760 C 113.898 325.968,114.016 325.927,116.143 326.060 C 118.260 326.191,118.401 326.144,118.401 325.300 C 118.400 324.567,118.622 324.400,119.600 324.400 C 120.375 324.400,120.800 324.197,120.800 323.827 C 120.800 323.512,121.160 323.140,121.600 323.000 C 122.040 322.860,122.400 322.495,122.400 322.187 C 122.400 321.880,122.744 321.444,123.164 321.219 C 123.679 320.944,123.857 320.540,123.711 319.982 C 123.551 319.370,123.718 319.094,124.347 318.930 C 125.011 318.756,125.200 318.399,125.200 317.316 C 125.200 316.262,125.394 315.875,126.000 315.716 C 126.739 315.523,126.800 315.170,126.800 311.116 C 126.800 307.062,126.739 306.709,126.000 306.516 C 125.406 306.361,125.200 305.970,125.200 305.000 C 125.200 304.003,124.998 303.640,124.347 303.470 C 123.718 303.306,123.551 303.030,123.711 302.418 C 123.857 301.860,123.679 301.456,123.164 301.181 C 122.744 300.956,122.400 300.584,122.400 300.355 C 122.400 299.443,120.019 297.540,119.203 297.799 C 118.576 297.998,118.400 297.873,118.400 297.227 C 118.400 296.493,118.157 296.400,116.247 296.400 C 114.430 296.400,114.061 296.275,113.884 295.600 C 113.702 294.902,113.338 294.800,111.037 294.800 C 108.667 294.800,108.400 294.881,108.400 295.600 M305.000 295.600 C 305.233 296.333,305.072 296.400,303.074 296.400 C 301.230 296.400,300.861 296.523,300.684 297.200 C 300.555 297.692,300.138 298.000,299.602 298.000 C 298.648 298.000,296.400 299.895,296.400 300.699 C 296.400 300.974,296.175 301.155,295.900 301.100 C 295.623 301.045,295.345 301.472,295.277 302.059 C 295.202 302.707,294.852 303.198,294.377 303.322 C 293.789 303.476,293.600 303.875,293.600 304.963 C 293.600 305.974,293.422 306.400,293.000 306.400 C 292.500 306.400,292.400 307.200,292.400 311.200 C 292.400 315.200,292.500 316.000,293.000 316.000 C 293.419 316.000,293.600 316.422,293.600 317.400 C 293.600 318.391,293.779 318.800,294.213 318.800 C 295.048 318.800,295.448 319.997,294.758 320.434 C 294.325 320.708,294.318 320.789,294.724 320.794 C 295.012 320.797,295.136 320.980,295.000 321.200 C 294.864 321.420,295.102 321.600,295.530 321.600 C 295.970 321.600,296.397 321.946,296.516 322.400 C 296.631 322.840,297.012 323.200,297.363 323.200 C 297.713 323.200,298.000 323.470,298.000 323.800 C 298.000 324.204,298.404 324.400,299.237 324.400 C 300.151 324.400,300.531 324.616,300.691 325.225 C 300.846 325.818,301.200 326.030,301.953 325.982 C 304.023 325.850,304.800 326.009,304.800 326.567 C 304.800 326.878,304.583 327.206,304.318 327.294 C 304.053 327.382,305.628 327.450,307.818 327.444 C 310.008 327.438,311.475 327.366,311.078 327.283 C 309.560 326.967,310.750 326.195,312.932 326.080 C 314.892 325.976,315.200 325.852,315.200 325.162 C 315.200 324.465,315.379 324.397,316.616 324.629 C 317.395 324.775,318.003 324.739,317.968 324.547 C 317.813 323.695,318.046 323.200,318.600 323.200 C 318.944 323.200,319.200 322.839,319.200 322.353 C 319.200 321.716,319.389 321.556,319.967 321.707 C 320.636 321.882,320.708 321.740,320.524 320.612 C 320.352 319.547,320.460 319.278,321.130 319.102 C 321.742 318.942,321.978 318.502,322.073 317.344 C 322.153 316.372,322.385 315.837,322.700 315.900 C 323.078 315.976,323.200 314.827,323.200 311.200 C 323.200 307.200,323.100 306.400,322.600 306.400 C 322.167 306.400,322.000 305.956,322.000 304.800 C 322.000 303.435,321.875 303.200,321.150 303.200 C 320.419 303.200,320.334 303.032,320.540 302.000 C 320.742 300.991,320.654 300.800,319.990 300.800 C 319.467 300.800,319.200 300.530,319.200 300.000 C 319.200 299.467,318.933 299.200,318.400 299.200 C 317.851 299.200,317.600 298.933,317.600 298.350 C 317.600 297.613,317.435 297.533,316.362 297.748 C 315.346 297.951,315.087 297.852,314.915 297.198 C 314.739 296.525,314.368 296.400,312.553 296.400 C 310.667 296.400,310.400 296.301,310.400 295.600 C 310.400 294.875,310.133 294.800,307.573 294.800 C 304.928 294.800,304.762 294.852,305.000 295.600 " stroke="none" fill="#fcfc83" fill-rule="evenodd"></path></g></svg>