<?xml version="1.0" encoding="utf-8"?>
<!-- Svg Vector Icons : http://www.onlinewebfonts.com/icon -->
<!DOCTYPE svg PUBLIC "-//W3C//DTD SVG 1.1//EN" "http://www.w3.org/Graphics/SVG/1.1/DTD/svg11.dtd">
<svg version="1.1" xmlns="http://www.w3.org/2000/svg" xmlns:xlink="http://www.w3.org/1999/xlink" x="0px" y="0px" viewBox="0 0 1000 1000" enable-background="new 0 0 1000 1000" xml:space="preserve">
<metadata> Svg Vector Icons : http://www.onlinewebfonts.com/icon </metadata>
<g><path d="M851.7,768.5H73c-34.7,0-63-28.3-63-63v-411c0-34.7,28.3-63,63-63h778.7c34.7,0,63,28.3,63,63v411C914.7,740.2,886.4,768.5,851.7,768.5z M73,270.9c-13,0-23.6,10.6-23.6,23.6v411c0,13,10.6,23.6,23.6,23.6h778.7c13,0,23.6-10.6,23.6-23.6v-411c0-13-10.6-23.6-23.6-23.6H73z"/><path d="M951.6,629.7h-38.9c-21.2,0-38.4-17.2-38.4-38.4V411.6c0-21.2,17.2-38.4,38.4-38.4h38.9c21.2,0,38.4,17.2,38.4,38.4v179.7C990,612.5,972.8,629.7,951.6,629.7z M913.7,590.3h36.9V412.6h-36.9V590.3z"/><path d="M210.8,469.7l-59.1,59.1L210.8,469.7z"/><path d="M466.8,585.6L222.4,495c-10.2-3.8-15.4-15.1-11.6-25.3l0,0c3.8-10.2,15.1-15.4,25.3-11.6l244.4,90.6L466.8,585.6z"/><path d="M482,591.8L442.7,576V403.8l39.4,17.7V591.8z"/><path d="M668,536.8l-212.9-83.5L470,416l212.9,83.5c10.4,4.1,15.5,15.7,11.4,26l0,0C690.1,535.8,678.4,540.9,668,536.8z"/></g>
</svg>